<?xml version="1.0" encoding="UTF-8" standalone="no"?>
<!-- Generator: Adobe Illustrator 15.0.3, SVG Export Plug-In . SVG Version: 6.00 Build 0)  -->

<svg
   xmlns:dc="http://purl.org/dc/elements/1.1/"
   xmlns:cc="http://creativecommons.org/ns#"
   xmlns:rdf="http://www.w3.org/1999/02/22-rdf-syntax-ns#"
   xmlns:svg="http://www.w3.org/2000/svg"
   xmlns="http://www.w3.org/2000/svg"
   xmlns:sodipodi="http://sodipodi.sourceforge.net/DTD/sodipodi-0.dtd"
   xmlns:inkscape="http://www.inkscape.org/namespaces/inkscape"
   version="1.1"
   id="Ebene_1"
   x="0px"
   y="0px"
   width="335.16748"
   height="204.353"
   viewBox="0 0 335.16749 204.35299"
   enable-background="new 0 0 400 330"
   xml:space="preserve"
   sodipodi:docname="NI_Assembly.svg"
   inkscape:version="0.92.4 (5da689c313, 2019-01-14)"><metadata
   id="metadata59"><rdf:RDF><cc:Work
       rdf:about=""><dc:format>image/svg+xml</dc:format><dc:type
         rdf:resource="http://purl.org/dc/dcmitype/StillImage" /><dc:title></dc:title></cc:Work></rdf:RDF></metadata><defs
   id="defs57" /><sodipodi:namedview
   pagecolor="#ffffff"
   bordercolor="#666666"
   borderopacity="1"
   objecttolerance="10"
   gridtolerance="10"
   guidetolerance="10"
   inkscape:pageopacity="0"
   inkscape:pageshadow="2"
   inkscape:window-width="3440"
   inkscape:window-height="1377"
   id="namedview55"
   showgrid="false"
   inkscape:pagecheckerboard="true"
   fit-margin-top="0"
   fit-margin-left="0"
   fit-margin-right="0"
   fit-margin-bottom="1.8"
   width="335.16748px"
   inkscape:zoom="2.0081833"
   inkscape:cx="33.450691"
   inkscape:cy="90.03175"
   inkscape:window-x="1912"
   inkscape:window-y="-8"
   inkscape:window-maximized="1"
   inkscape:current-layer="g52" />
<g
   id="g52"
   transform="translate(-27.063648,58.50724)">
	
	<g
   id="g50"
   transform="translate(0,-64.50724)"
   style="fill:#ffffff">
		
		
		
		
		
		
		
		
		
		
		
		
		
		
		
		
		
		
		
		
		
		
		<path
   d="m 196.464,187.678 c 1.137,-5.094 3.082,-9.898 4.41,-14.949 1.477,-3.328 3.398,-8.293 5.352,-11.379 6.648,-2.055 12.941,-4.137 16.551,-10.793 1.996,-3.812 3.664,-7.855 3.758,-12.332 -6.223,6.953 -12.93,13.324 -19.812,18.844 1.422,-5.52 5.602,-15.283 7.836,-20.523 3.801,-5.568 9.59,-5.527 13.348,-11.428 3.422,-4.621 5.945,-6.684 6.609,-12.447 -0.285,-0.762 0.141,-3.93 -0.801,-4.121 -5.418,6.137 -12.312,14.111 -17.207,20.535 1.852,-5.471 5.324,-22.543 7.84,-27.738 1.996,-2.285 5.91,-3.156 7.285,-6.061 4.09,-5.805 4.191,-10.488 4.719,-17.725 -0.094,-0.619 0.191,-1.664 -0.242,-2.283 l -0.664,0.803 c -2.664,7.004 -6.746,13.473 -11.215,19.758 -0.281,-8.24 -0.594,-6.625 0.832,-14.152 0.949,-3.041 3.234,-5.516 5.934,-7.516 3.906,-2.812 8.031,-5.189 11.738,-8.232 0.91,4.707 3.328,9.232 7.082,12.318 3.234,3.145 7.789,4.289 10.598,7.996 1.285,1.289 1.996,2.381 2.945,3.904 -7.078,-2.088 -13.637,-6.943 -19.48,-12.328 l -3.422,-3.996 c -0.23,-0.051 -0.426,0 -0.57,0.24 1.051,5.713 2.66,11.949 8.312,15.516 4.562,3.332 10.363,2.996 15.871,3.762 0.188,0.57 0.898,0.283 1.234,0.807 3.613,3.045 5.137,7.568 4.086,11.9 -0.762,4.852 -2.367,9.664 -3.848,14.363 -1.379,-7.508 -5.797,-14.082 -4.559,-22.359 -3.566,4.281 -6.938,10.281 -4.234,15.852 0.902,4.186 5.414,6.893 5.801,11.316 -1.852,9.381 -7.605,17.324 -14.777,24.324 3.469,-6.328 1.285,-14.992 4.656,-21.367 0.852,-2.244 2.094,-4.381 2.945,-6.621 -0.281,-0.48 -0.809,-0.092 -1.133,0.096 -6.566,5.186 -12.125,12.328 -11.508,20.805 0.617,3.232 0.617,6.041 0.91,9.232 l -0.43,1.283 c -5.375,5.568 -12.742,12.061 -19.16,15.963 -0.324,-0.953 0.102,-2.188 0.34,-3.191 2.609,-7.809 3.492,-9.691 8.578,-16.496 0.094,-0.371 0.328,-0.711 0.328,-1.135 h -0.668 c -7.547,5.611 -13.25,7.904 -13.25,18.174 -0.379,2.285 0.199,3.738 -1.703,5.641 -6.84,7.572 -15.137,6.888 -21.215,15.74 m -0.147,-17.367 c 0.287,5.672 -1.521,6.703 -3.281,11.66 -0.992,1.664 -1.184,3.566 -2.512,5.043 -0.619,-0.047 -0.809,-0.859 -1.049,-1.383 -1.092,-7.473 -5.078,-13.758 -5.791,-21.371 -0.908,-2.855 1.893,-4.754 2.516,-7.281 3.088,-7.141 2.328,-17.422 -0.477,-24.566 -0.428,-0.23 -0.52,-0.951 -1.043,-0.711 -0.668,1.768 -0.477,3.812 -0.996,5.623 -1.809,6.42 -4.328,13.561 -2.188,20.658 l -0.096,1.047 c -3.041,-4.625 -4.705,-9.764 -6.514,-14.852 -0.807,-3.145 -3.943,-13.492 -3.852,-16.869 4.137,-6.047 5.939,-14.092 4.088,-21.656 -0.803,-3.52 -1.996,-6.9 -3.852,-9.943 -0.428,-0.188 -0.805,0.385 -0.707,0.572 1.615,9.471 -4.137,17.893 -3.426,27.596 -2.852,-6.275 -2.795,-6.732 -3.742,-14.301 l -1.617,-5.803 c -2.145,-6.332 1.324,-11.949 5.225,-16.232 l 3.084,-2.615 c 7.6,-2.857 16.252,-3.857 21.904,-10.664 0.572,-0.572 0.904,-1.236 0.904,-2.045 l 0.1,-0.461 c -5.033,2.182 -10.596,4.266 -16.16,5.27 -0.852,0.23 -1.516,0.859 -2.275,1.23 4.322,-4.043 8.691,-8.184 12.639,-12.891 3.848,2.24 7.408,5.096 11.064,7.66 l 3.32,2.764 c 2.051,1.32 4.047,2.432 6.109,3.992 -0.707,-0.264 -8.242,-2.16 -14.143,1.084 -6.311,3.477 -11.539,5.592 -11.539,5.592 0,0 7.168,5.592 12.596,1.959 5.426,-3.619 15.156,-5.436 15.156,-5.436 2.41,-0.152 3.637,1.869 3.637,1.869 1.578,1.52 1.434,1.738 2.633,3.596 2.609,6.188 3.09,12.324 2.848,19.42 -3.797,-6.096 -6.75,-13.137 -6.27,-20.656 -0.09,-0.279 -0.48,-0.336 -0.664,-0.141 -4.613,6.797 -4.117,15.34 0.027,22.053 0.992,1.385 3.199,2.359 4.531,3.072 0.762,0.859 0.051,1.955 -0.09,2.863 -2.242,6.797 -3.852,13.889 -6.086,20.652 -1.277,-7.863 -3.531,-11.672 -3.391,-19.324 -0.234,-0.145 -0.375,-0.615 -0.809,-0.432 -2.414,3.9 -1.93,3.664 -3.207,8.131 -1.191,6.617 -0.809,13.713 3.652,18.617 0.43,2.375 -1.094,4.279 -1.473,6.523 -1.328,3.904 -3.613,11.43 -5.461,15.148 0,-6.762 -1.092,-13.523 -2.615,-19.664 -0.191,-0.096 -0.283,-0.477 -0.572,-0.336 l -0.332,0.336 c -2.18,8.185 -6.023,18.04 0.197,25.603 m -26.496,0.109 c -5.793,-6.277 -4.273,-15.979 -9.361,-22.746 -2.18,-2.617 -4.176,-5.041 -7.172,-6.758 0.381,3 2,5.66 2.855,8.568 1.328,4.9 1.137,10.424 4.561,14.42 -6.371,-4.285 -17.775,-8.898 -19.391,-17.803 -2.045,-8.996 -8.221,-16.518 -15.637,-22.756 -0.141,-0.041 -0.424,0.1 -0.564,-0.09 -0.572,0.572 0.141,1.186 0.141,1.805 2.992,6.24 6.988,11.996 8.412,18.855 l 0.471,0.809 c -4.271,-3.092 -13.928,-11.164 -17.164,-15.641 -6.062,-4.959 0.633,-8.863 2.221,-14.07 1.58,-5.217 -2.035,-12.014 -2.035,-12.014 0,0 -1.365,3.857 -4.301,9.748 -2.943,5.889 -1.82,12.34 -1.82,12.34 l 0.332,0.713 c -6.18,-2.855 -5.463,-9.512 -5.232,-15.08 0,0 -0.355,-2.08 1.145,-4.328 4.373,-7.572 15.301,-9.379 17.771,-18.611 l 0.809,-2.668 c 4.363,2.096 9.881,1.816 14.82,1.139 3.232,1.193 6.324,2.576 9.359,4.244 l 3.66,1.945 c 4.32,1.527 3.607,6.379 4.564,9.955 0.184,2.088 0.852,4.045 1.141,6.133 -2.477,-2.332 -2.098,-6.041 -3.564,-8.904 0,0 -2.469,-4.332 -11.312,-4.779 -2.027,-0.113 -4.068,1.811 -4.068,1.811 0,0 4.293,1.357 5.201,2.941 2.107,3.699 6.227,5.611 7.42,5.982 1.752,1.949 3.867,3.09 4.688,5.697 3.004,5.455 2.775,10.148 4.816,14.619 1.188,3.953 2.568,7.852 4.088,11.664 -4.512,-6.287 -13.213,-11.52 -16.961,-19.08 -0.664,-0.148 -0.195,0.617 -0.475,0.805 1.328,11.371 9.402,21.561 19.623,27.084 1.279,0.76 1.896,1.852 2.607,3.043 2.285,4.904 4.564,9.758 6.846,14.664 0.752,3.047 2.043,7.18 2.043,7.18 2.279,4.102 4.416,8.66 4.324,13.375 -6.181,-7.906 -7.49,-7.738 -14.861,-14.211 M 119.112,74.17 c 1.141,-1.332 1.564,-2.953 2.279,-4.477 4.893,5.664 11.213,9.848 17.342,13.52 v 0.328 h -1 c -4.416,-1.473 -8.121,-4.615 -13.258,-4.324 -2.084,0.66 -4.414,0.66 -6.123,2.283 1.188,1.045 4.111,2.484 5.68,3.053 -2.803,3.904 -6.963,7.703 -11.291,10.08 -1.232,0.855 -2.416,2.088 -3.084,3.428 2.467,-8.276 5.559,-16.272 9.455,-23.891 m 73.36,-16.09 c 2.186,3.953 6.08,7.426 7.172,11.992 l -11.307,-6.084 c 1.711,-1.814 2.516,-4.05 4.135,-5.908 m 88.019,44.66 c 1.898,-2.424 2.34,-4.252 5.098,-4.828 2.234,-0.375 4.23,0.861 5.844,2.053 0.434,0.615 1.051,1.141 1.004,1.943 -8.715,0.77 -6.027,-0.295 -15.043,5.725 2.261,-3.049 1.371,-2.295 3.097,-4.893 m 80.501,86.793 c -2.133,-3.996 -6.316,-6.379 -10.646,-6.852 1.668,-1.051 4.095,-1.004 6.185,-0.809 1.281,0.281 2.566,1.234 3.656,1.379 -0.617,-1.281 -1.566,-2.285 -2.754,-3.094 -4.18,-2.328 -9.606,-1.148 -13.446,1.145 -3.898,2.281 -8.938,1.52 -12.875,-0.102 2.281,-0.762 4.562,-1.613 6.605,-2.996 3.844,-3.43 8.879,-4.336 14.16,-3.281 -0.199,-1.055 0.156,-3.902 -2.301,-5.16 -4.73,-2.418 -7.238,-2.469 -9.797,-0.543 -6.102,6.156 -7.996,7.855 -7.996,7.855 -4.375,2.434 -8.656,-0.062 -12.223,-3.102 l -0.422,-0.574 c 7.227,-0.047 12.734,-4.141 18.336,-8.09 0,0 4.855,-3.266 5.844,-3.668 1.66,-1.715 4.043,-2.332 6.031,-3.66 -1.609,-0.238 -3.848,0 -5.27,0.23 -3.172,0.602 -5.465,1.715 -5.465,1.715 -3.566,1.957 -6.652,5.477 -10.504,6.516 0,-0.082 0.105,-0.129 0.145,-0.23 0.383,-1.102 -0.188,-2.137 -1.145,-2.707 -1.848,-0.859 -4.031,-0.91 -6.027,-0.391 0.711,0.715 2.082,0.859 2.852,1.719 0.664,0.906 1.473,1.852 1.145,2.996 -1.434,2.422 -4.426,2.613 -7.086,2.711 -7.691,-0.711 -13.922,-6.094 -22,-4.898 5.754,-4 11.828,-8.664 16.539,-13.709 0.477,-0.096 1.281,-0.236 1.707,0.139 2.754,-0.475 5.562,-1.188 7.512,-3.23 -0.477,1.043 -0.91,2.043 -1.047,3.23 0.277,1.484 0.57,3.285 2.273,3.855 3.852,0.188 8.32,3.812 11.414,-0.422 0.469,-2.049 2.848,-1.861 3.992,-3.434 1.035,-0.947 0.23,-2.428 0.465,-3.566 1.141,-0.236 1.672,0.906 2.758,0.807 1.234,-0.379 2.852,0.1 3.613,-1.471 0.566,-2.285 3.277,-3.43 3.23,-5.949 -0.902,-2.336 0.613,-4.809 -0.57,-7.096 -1.234,-2.188 -3.848,-2.855 -6.273,-2.523 1.711,-1.477 2.332,-3.621 1.711,-5.805 -0.383,-2.523 -2.566,-5.188 -5.039,-5.951 -2.465,-1.088 -4.746,-2.656 -7.645,-1.709 -2.523,0.188 -2.523,3.184 -3.523,4.705 -0.184,-0.9 -0.711,-1.66 -1.277,-2.43 -3.043,-3.604 -7.359,-0.852 -11.023,-0.803 -2.805,1.471 -4.227,4.664 -5.848,7.232 -1.422,1.432 -0.141,3.428 -0.23,5.139 0.805,1.816 2.281,3.336 4.223,3.768 -2.609,1.896 -5.273,5.041 -4.32,8.426 1.426,1.803 -0.043,4.42 1.711,6.084 -0.859,1.248 -2.141,2.387 -3.426,3.051 3.047,-4.615 -1.852,-8.803 -0.898,-13.564 0.047,-0.76 0.758,-1.668 0.57,-2.191 -5.602,1.957 -2.473,8.617 -2.52,12.564 -0.289,0.908 -0.477,2.191 -1.234,2.527 v -0.336 c 1.234,-6.572 -5.512,-12.471 -0.809,-18.611 l -0.141,-0.141 c -1,0.76 -1.805,1.428 -2.711,2.424 -3.848,4.428 -2.422,11.088 -0.809,16.092 1.141,3.664 -0.949,6.285 -2.758,8.898 -5.359,4.859 -11.875,7.52 -17.855,11.086 -1.191,0.383 -2.332,1.195 -3.57,1.055 0,0 -4.289,0.848 -5.664,1.066 -7.371,1.555 -4.453,0.547 -9.586,0.836 8.504,-4.43 12.449,-13.848 20.957,-18.473 l -0.246,-0.234 c -1.801,0.234 -3.559,0.766 -5.312,1.141 -7.371,1.809 -12.449,8.953 -17.91,13.801 -5.09,5.051 -12.125,5.336 -18.824,6.434 -8.602,0.992 -16.574,3.559 -24.512,6.133 -2.703,0.57 -5.273,2.145 -7.887,2.281 -0.289,-0.664 0.57,-0.52 0.57,-1 9.117,-4.66 20.48,-12.188 29.891,-16.086 3.516,-0.242 7.461,-0.473 10.93,-0.953 8.312,-0.289 12.441,-4.281 17.57,-10.367 1.094,-1.523 2.996,-2.957 3.09,-4.805 -1,0.332 -1.852,1.045 -2.758,1.707 -7.219,3.855 -11.633,6.133 -19.852,7.66 -1.949,0.246 -3.852,0.957 -5.699,1.145 3.852,-4.477 13.547,-11.908 18.539,-14.816 9.168,-6.135 17.559,-4.684 23.637,-16.012 3.328,-3.859 2.094,-9.707 1.711,-14.512 -3.699,9.271 -9.355,14.176 -16.625,19.988 -1.617,1.283 -3.141,3.088 -5.043,3.332 l 1.363,-2.641 c 6.414,-8.566 4.633,-12.18 9.859,-21.264 1.125,-2.668 2.875,-5.889 4.945,-6.988 4.805,-2.562 11.336,-0.703 15.816,-3.863 -0.09,1.52 -1.328,3.092 -0.57,4.477 2.379,-1.717 4.086,-4.24 4.891,-6.857 l 5.133,-1.947 0.098,-0.336 c -1.566,-1 -3.805,-0.477 -5.562,-0.951 -0.238,-1.426 -1.23,-2.625 -2.18,-3.766 -1.996,-1.996 -4.949,-2.799 -7.746,-2.375 2.797,-1.568 6.363,-2.092 9.785,-1.473 2.992,1.232 6.133,3.564 7.418,6.705 2.414,3.191 -1.34,5.707 -2.625,8.143 -2.227,2.752 -1.473,6.9 0,9.797 1.574,0.057 2.715,-1.611 3.992,-2.615 3.379,-3.277 2.242,-8.324 1.816,-12.225 l 0.227,-0.24 c 0.859,0.424 1.48,1.283 1.852,2.053 0.863,4.943 4.473,9.895 9.465,11.416 1.133,0.096 2.613,0.811 3.512,0.139 0.051,-2.424 -0.242,-5.611 -1.809,-7.756 -3.227,-6.092 -10.922,-4.471 -14.586,-9.939 3.945,0.232 6.988,3.424 10.938,4.088 4.887,1.381 9.207,-1.428 11.879,-4.809 l 0.324,-0.76 c -5.035,0.852 -10.828,0.852 -15.73,0 -5.414,-0.432 -9.359,-4.336 -14.246,-5.943 0.945,-0.537 2.18,-0.432 3.18,-0.816 6.316,-0.859 12.688,3.709 18.578,0.477 3.566,-2.092 6.934,-5.852 6.934,-9.953 -4.512,-0.324 -8.738,1.389 -12.062,4.672 -2.805,2.568 -6.703,3.232 -10.602,2.521 2.289,-1.098 4.855,-1.809 6.703,-3.766 4.133,-3.512 4.133,-9.135 7.98,-12.895 -7.934,1.715 -10.973,9.807 -16.395,15.184 -1.32,0.812 -2.988,2.047 -4.559,0.904 0.145,-3.332 3.895,-4.953 5.703,-7.088 3,-3.381 1.711,-8.428 0.234,-12.088 -1.945,0.947 -3.609,2.996 -4.695,4.803 -2.43,2.904 -1.434,7.521 -2.145,10.854 -1.141,3.336 -4.703,5.619 -7.879,6.375 -3,0.768 -5.898,2.527 -7.891,4.9 l -0.684,1 c -4.906,6.26 -3.977,7.711 -8.875,12.852 l -0.23,-0.24 2.848,-15.412 c 0.266,-2.943 1.324,-1.145 5.844,-1.6 4.523,-0.451 4.074,-7.023 4.074,-7.023 0,0 -1.586,2.264 -4.523,2.492 -2.945,0.23 -4.902,1.832 -4.902,1.832 0.555,-3.328 1.453,-6.5 2.363,-9.652 0.664,2.623 3.418,3.287 5.605,3.904 2.273,-1.049 4.891,-0.525 6.453,-3.098 2.055,-0.326 2.383,-2.52 2.996,-4 0.711,-0.943 -0.047,-2.086 -0.141,-2.994 0.996,0.379 2.379,0.379 3.328,0 1.852,-1.045 2.371,-3.045 2.371,-4.992 -0.898,-1.953 2.098,-3.285 0.719,-5.281 -0.477,-1.672 0.562,-3.764 -1.043,-5.139 -1.43,-1.34 -3.328,-0.816 -4.895,-0.434 0.469,-0.906 0.898,-1.814 1.035,-2.852 -0.277,-1.387 0.148,-2.623 -0.711,-3.764 -2.66,-0.809 -3.086,-4.523 -6.125,-4 -0.805,-1.611 -2.566,-1.809 -4.129,-1.947 -1.48,1.527 -3.617,-0.664 -4.902,1.234 -0.996,1.006 -1.086,2.332 -1.473,3.568 l -0.328,-0.379 c -1.238,-1.148 -3.23,-1.617 -4.797,-0.904 -1.762,-0.096 -2.996,1.004 -4.328,1.855 -2.09,2.809 -5.273,5.428 -3.988,9.477 0.711,1.232 2.238,1.756 3.184,2.703 0.57,0.48 1.473,0.48 1.949,0.957 -1.664,0.428 -2.949,1.852 -4.133,3.051 -1.145,1.518 -0.242,3.758 -0.332,5.373 2.285,1.141 1.082,3.951 2.938,5.375 1.434,1.434 2.949,3.289 5.133,3.43 1.098,0.57 1.855,-0.621 2.855,-0.094 -1.094,4.377 -2.422,8.705 -3.184,13.229 -0.145,0.76 -0.336,1.523 -0.809,2.041 -2.332,-3.988 -6.844,-7.752 -4.648,-12.893 1.035,-4 -1.859,-6.805 -4.328,-9.377 h -0.344 c 0.957,2 0.102,4.328 -0.137,6.43 -0.188,1.139 0.336,2.424 0.48,3.424 -0.859,-1 -1.953,-1.76 -2.617,-2.854 -3.137,-5.668 3.469,-10.234 1.332,-15.898 -0.852,-2.953 -4.09,-5.236 -6.797,-5.713 1.191,2.572 2.379,5.141 2.043,8.332 -0.426,3.24 -0.945,6.141 -0.23,9.279 -4.098,-4.33 -8.227,-8.855 -10.742,-13.943 3.707,-3.855 8.5,-5.568 13.109,-7.328 9.836,-3 12.543,-14.092 19.293,-20.803 0.426,-0.377 0.758,-0.805 1,-1.145 -9.555,0.432 -14.688,10.096 -20.621,16.807 -0.477,0.664 -1.234,1.086 -1.949,0.9 0.527,-1.379 1.238,-2.664 1.852,-4 4.086,-7.891 2.047,-17.416 -3.09,-24.176 l -0.57,-0.375 c -2.656,3.568 -0.855,8.756 -0.234,12.939 0.762,6.049 2.234,12.473 -2.145,17.332 -0.75,1.096 -1.75,2.18 -2.848,2.52 l 0.434,-2.051 c 2.562,-3.568 1.945,-8.521 0.566,-12.473 -3.043,3.764 -4.559,8.812 -3.996,13.711 1,2.24 -0.609,3.949 -2.035,5.521 -0.859,-1.621 -1.098,-3.521 -1.621,-5.281 h -0.188 c -0.477,2.285 -1.094,4.992 -0.383,7.189 -0.711,0.66 -1.469,1.191 -2.277,1.615 -1.52,0.859 -2.898,2.469 -4.422,2.955 0.711,-1.004 1.668,-1.723 2.52,-2.623 3.281,-2.904 2.289,-8.332 2.148,-11.992 -2.289,1.191 -4.473,2.855 -6.375,4.709 -2.184,1.996 -2.086,5.523 -1.855,7.996 0.809,4.523 -4.465,7.238 -7.035,9.711 l -0.141,-0.145 c -0.992,-5.664 -0.09,-12.572 0.141,-18.703 1.434,-0.48 3.617,0.047 4.992,-0.953 2.281,-1.043 2.707,-3.615 2.996,-5.898 1.137,1 2.328,2.471 4.18,2.047 0.906,-0.908 2.281,-0.531 3.238,-1.287 0.801,-1.861 2.938,-3.145 3.512,-5.145 1.375,-1.9 1.422,-4.512 1.469,-6.852 -0.473,-1.088 -1.805,-1.66 -2.848,-2.137 0.758,-0.48 1.426,-1.051 2.043,-1.719 0.953,-1.42 1.66,-3.656 0.711,-5.377 -0.574,-2.904 -1.469,-5.611 -3.176,-7.996 -1.195,-1.379 -2.809,-1.715 -4.375,-2.184 -3.047,-0.336 -5.707,2.137 -7.176,4.711 h -0.242 c -0.039,-1.191 0.102,-1.996 -0.09,-3.1 -0.383,-1.375 -1.664,-2.184 -2.855,-2.855 -2.461,0 -4.793,0.057 -7.176,-0.328 -2.848,0.477 -5.508,1.9 -7.41,4.24 -1.613,2.088 -1.043,5.133 0.336,7.184 0.188,0.805 1.375,1.049 1.137,1.943 -0.902,-0.184 -1.754,-0.566 -2.758,-0.566 -1.332,0.383 -2.137,1.096 -3.035,2.139 0.141,2.717 -2.801,4.428 -1.711,7.184 0.242,0.816 1.188,1.434 0.664,2.434 -0.238,2.764 3.09,2.951 3.895,5.234 1.285,1.098 3.469,0.664 4.754,0.145 -0.238,1.184 -0.574,2.617 0.383,3.613 1.711,1.672 2.891,4.238 5.223,4.951 -0.148,1.76 0.383,3.947 -0.477,5.336 -2.461,-0.195 -4.605,-1.244 -6.699,-2.283 -5.605,-3.717 -6.742,-10.477 -11.875,-14.713 l -0.434,0.34 c 0.434,4.652 0.574,9.416 3.523,13.033 0,0 1.973,5.379 6.945,5.604 l 0.465,-0.033 c 2.898,-0.523 5.699,-0.664 8.074,1.049 0.762,4.469 -0.367,10.068 -0.891,14.496 -0.621,-0.859 -1.148,-3.32 -1.484,-4.324 -0.758,-3.381 -2.199,-4.744 -3.625,-7.795 l -0.711,-0.713 c -1.145,1.432 -0.637,4.428 -0.922,6.283 0.145,4.617 2.691,5.996 5.828,9.424 0.57,1.713 0.617,3.949 0.242,5.805 -3.141,-6.049 -9.418,-10.424 -14.727,-14.043 0,0 -1.246,0.08 -2.285,-3.9 -1.66,-5.141 -5.512,-9.369 -8.553,-13.945 3.992,-7.139 6.123,-15.088 7.889,-23.18 0.52,-1.895 3.078,-2.164 3.84,-3.975 1.258,-2.842 2.477,-6.752 0.711,-9.701 -0.141,-0.287 -0.188,0.045 -0.371,0 -0.48,3.137 -2.832,8.859 -3.73,8.096 0,0 -0.715,-1.391 0.414,-3.656 1.129,-2.271 1.922,-6.234 1.809,-10.088 C 204.479,9.064 202.562,6 202.562,6 c 0.109,4.988 -2.602,8.389 -2.938,10.992 -0.34,2.609 0.141,7.938 0.141,7.938 -0.379,0.879 -0.52,0.127 -0.68,-0.461 -0.156,-0.588 -0.105,-1.424 -0.273,-1.695 l -1.475,-4.518 c -2.416,-5.932 -9.533,-8.25 -11.939,-8.955 h -0.336 c 1.391,4.629 8.359,13.373 11.402,18.709 0.805,1.943 2.137,3.611 1.896,5.943 -0.711,6.568 -2.607,12.611 -6.268,17.939 -1.191,-1.947 -1.812,-4.188 -2.377,-6.375 l 0.564,-3.568 c 0.336,-5.805 -5.932,-7.76 -9.451,-10.943 h -0.332 c -0.76,2.803 0.24,6.279 0.904,9.23 0.664,3.568 3.611,5.42 6.363,7.328 0.52,2.332 1.572,4.469 2.615,6.613 -1.707,2.34 -2.947,4.902 -4.752,7.191 -0.947,-1.096 -1.523,-2.381 -2.088,-3.664 -2.424,-4.045 -7.32,-5.1 -11.836,-5.477 1.385,4.428 4.473,9.617 9.461,10.76 0.803,0.373 1.996,0.092 2.611,0.664 -3.279,4.709 -7.32,9.037 -12.072,12.32 l -0.236,-0.184 c 0.525,-1.049 1.189,-2.045 1.949,-3 1.471,-2.668 1.191,-6.045 -0.232,-8.66 -0.527,-0.672 -0.924,-1.691 -1.951,-1.713 0.57,8.369 -2.045,15.656 -6.938,21.938 -1.332,1.471 -2.756,3.428 -4.559,4.572 -1.049,-2.053 -0.385,-4.67 -0.572,-7.24 0.951,0.244 1.855,-0.232 2.615,-0.896 4.229,-6.049 3.988,-14.896 2.377,-21.939 -0.336,-0.533 -0.145,-1.48 -1,-1.572 -0.664,5.568 -1.854,10.943 -3.66,16.084 -0.432,0.711 -0.521,1.855 -1.232,2.043 -1.477,-7.043 -0.713,-15.516 -0.244,-22.939 0.859,1.668 2.236,2.668 3.76,3.668 1.617,0.523 3.324,0.049 4.797,-0.477 2.188,-1.191 2.471,-3.855 4.656,-5.236 0.807,-2.326 0.852,-5.23 0.807,-7.664 -0.375,-0.855 -0.852,-1.855 -1.807,-2.279 0.428,-0.336 0.955,-0.287 1.471,-0.484 1.852,-0.711 1.664,-2.939 1.953,-4.66 1.275,-3.42 -2.141,-5.752 -2.756,-8.803 -0.473,-2.088 -2.709,-2.717 -4.465,-3.191 -1.951,-0.426 -3.707,0.523 -4.992,1.814 -0.523,-0.814 0.045,-2.051 -0.477,-2.855 -1.23,-1.48 -2.615,-3.287 -4.559,-3.764 -1.709,-1.809 -4.137,-0.188 -6.133,-0.996 -2.088,-1.477 -3.469,1.043 -4.939,1.904 -2.896,1.424 -1.66,4.896 -1.473,7.324 -0.328,-0.236 -0.664,-0.473 -1,-0.668 -2.516,-0.518 -5.84,-0.713 -7.787,1 -1.045,1.576 -1.9,3.096 -1.809,4.908 -0.947,2.332 -2.088,5.23 -0.328,7.555 1.137,2.633 3.988,3.576 6.695,3.533 -2.467,2.283 -1.283,5.711 -1.234,8.562 1.379,2.236 3.516,5.473 6.512,5.949 1.943,0.623 4.604,0.475 6.031,-1.049 2.473,-0.375 3.184,-3.137 4.561,-4.756 0.336,0.717 0.287,1.713 0.477,2.377 -0.568,5 -0.285,10.664 -1.141,15.664 H 154.7 c -1,-1.385 -1.188,-3.289 -2.043,-4.812 -1.713,-3.184 -5.373,-4.141 -8.553,-4.896 -1.473,-0.287 -3.283,-0.908 -4.561,-0.34 l 2.277,2.381 c 3.66,1.668 6.844,4.523 9.6,7.668 3.463,3.658 3.703,8.559 3.752,13.555 -0.049,1.1 0.096,2.332 -0.568,3 -5.088,-0.375 -9.596,-2.471 -13.355,-5.707 -1.705,-1.289 -0.613,-2.9 -0.9,-4.572 -0.764,-6.137 -1.852,-12.801 -7.885,-15.984 l -0.096,0.092 c 3.18,5.713 1.568,13.52 4.893,18.992 -5.324,-2.951 -10.641,-6.859 -14.82,-11.66 2.229,-2.715 4.604,-4.711 7.312,-7.191 3.039,-3.424 3.992,-7.848 2.852,-12.469 l -1.283,0.092 c -5.508,1.48 -8.74,7.145 -9.217,12.469 0.141,-3.137 0.859,-6.279 0.904,-9.611 -0.523,-2.137 0.188,-4.953 -1.049,-6.709 -2.895,4.096 -4.131,9.713 -3.035,14.607 0,1.904 0.9,3.572 0.564,5.477 -1.805,-2 -3.369,-4.145 -4.225,-6.371 -0.713,-5.572 -1.568,-11.613 -7.084,-15 -2.328,-1.145 -4.752,-2.285 -7.168,-2.857 5.836,4.145 8.928,10.756 10.119,17.285 -2.428,-2.672 -5.799,-3.904 -9.551,-3.332 -2.377,0.615 -4.609,2.656 -5.705,4.568 1.621,0 3.328,-0.48 5.137,-0.434 7.316,-0.475 14.012,2.477 18.1,8.904 -2.279,9.701 -9.08,17.744 -11.264,27.416 -0.52,-2.863 -0.145,-5.955 0.572,-8.576 1.996,-5.711 3.799,-13.135 -0.717,-18.176 -0.375,3.045 -0.896,6.236 -2.131,9.037 -1.996,4.475 -2.092,9.902 -0.812,14.711 1.332,3.996 -0.473,7.996 -0.664,11.805 l -0.473,2.137 c -0.195,4.574 -0.572,9.287 -0.572,14.043 -1.99,-2.52 -4.131,-5.469 -3.664,-8.9 0.861,-5.232 2.385,-10.939 0.48,-16.229 -1.375,1.094 -1.947,2.9 -2.848,4.381 -1.568,2.668 -1.145,6.188 -1.049,9.137 -1.615,-4.045 -2.852,-8.521 -3.279,-13.137 2.76,0.619 4.561,-1.852 6.844,-2.76 0.664,-0.859 1,-1.855 1,-2.947 2.137,-1.385 1.709,-4.572 1.285,-6.762 -1,-1.143 -0.389,-2.707 -1.285,-3.764 -0.807,-1.236 -2.188,-1.236 -3.424,-1.471 1.285,-0.568 2.424,-1.713 2.756,-3.098 1.473,-3.475 -0.947,-6.947 -3.184,-9.371 -2.141,-0.527 -2.943,-2.812 -5.137,-3.092 -1.611,-1.432 -3.65,-1.004 -5.604,-1.236 -3.137,1.713 -3.988,5.141 -4.32,8.229 l -0.24,-0.232 c 0,-3.195 -2.992,-5.668 -5.463,-7.191 -2.373,0.523 -4.656,0.852 -7.076,0.572 -3.041,1.283 -5.133,4.615 -6.037,7.619 -0.619,3.275 2.568,4.943 4.422,6.844 -1.904,0.197 -3.854,0.389 -5.465,1.283 -2.66,0.816 -2.66,3.625 -3.656,5.572 0,1.385 0.141,2.996 1.279,4 0,3.189 2.236,5.141 4.797,6.664 2.092,0.232 4.088,1.854 6.367,0.76 0.861,-0.188 1.141,-1.471 1.949,-1.471 v 3.988 c 1.096,2.283 3.328,3.482 5.795,3.576 1.664,0.906 3.613,0.096 5.373,0.668 0.9,-0.816 2.043,0.139 2.848,-0.816 1.283,-1.285 3.088,-1.045 3.992,-2.855 l 1.141,5.287 c 0.287,1.564 1.234,2.996 1.375,4.568 L 93,107.295 c 0,0 -0.477,-0.484 -1.748,-1.275 -1.26,-0.793 -2.691,-0.957 -4.117,-1.424 -1.424,-0.477 -6.184,-1.9 -6.184,-1.9 0,0 1.109,1.424 1.271,1.9 0.16,0.467 2.064,2.699 4.121,3.971 2.061,1.268 7.764,3.332 7.764,3.332 l 2.695,5.713 c 0,0 -6.18,-2.857 -10.299,-4.125 -4.121,-1.275 -3.645,-2.387 -5.553,-4.451 -1.9,-2.064 -6.336,-3.648 -10.131,-4.129 -3.809,-0.471 -6.66,-1.428 -9.037,-3.643 -2.379,-2.229 -4.119,-3.656 -4.119,-3.656 0,0 2.055,4.127 6.176,7.619 4.123,3.492 6.816,4.449 8.404,4.924 1.584,0.473 3.639,2.697 3.639,2.697 0,0 -6.02,1.107 -8.555,2.535 -2.533,1.432 -3.488,2.389 -6.34,1.432 -2.85,-0.951 -3.48,-1.748 -3.48,-1.748 0,0 -3.809,-4.6 -6.5,-6.5 -2.691,-1.912 -4.916,-3.504 -10.141,-3.66 0,0 1.428,2.545 2.061,3.812 0.633,1.271 3.012,5.721 5.703,7.145 2.697,1.432 4.598,2.219 7.133,1.592 l 1.264,0.947 c 0,0 -3.645,0.793 -5.859,0.152 -2.221,-0.627 -4.596,-1.9 -6.816,-1.9 -2.217,0 -2.691,1.9 -2.691,1.9 0,0 2.219,-0.783 3.488,-0.316 1.268,0.484 5.07,3.336 8.234,4.129 3.172,0.791 4.598,0.477 7.293,-0.477 2.695,-0.955 3.012,-1.432 4.275,-1.432 0,0 -2.219,2.385 -3.168,3.332 -0.951,0.955 -3.488,2.699 -3.963,5.08 -0.473,2.379 -0.312,4.604 -0.312,4.604 0,0 2.057,-4.604 3.799,-5.08 1.74,-0.48 6.812,-3.332 7.605,-4.756 0.795,-1.432 1.271,-5.867 2.531,-6.344 1.271,-0.48 5.396,-1.271 8.721,-0.955 3.328,0.314 8.875,1.742 11.727,3.02 0,0 -5.387,2.367 -6.975,3.484 -1.58,1.111 -3.484,3.646 -5.705,5.391 -2.215,1.748 -6.34,3.812 -9.348,4.285 0,0 5.705,0.488 9.188,-1.113 3.488,-1.58 11.572,-6.184 14.584,-6.66 3.008,-0.479 6.809,-0.156 9.189,1.27 0,0 7.287,5.391 11.566,9.047 4.277,3.656 7.422,5.268 7.422,5.268 l 0.283,0.244 c -6.656,-0.527 -12.492,-1.26 -18.188,-4.688 -0.193,0.145 -1.025,-0.473 -1.025,-0.141 2.992,8.717 13.617,9.469 21.645,10.416 7.316,2.336 17.881,9.314 24.393,13.689 -5.088,-0.949 -10.125,1.047 -14.832,-1.281 l -0.236,0.238 c 4.377,5.898 11.264,7.23 18.58,6.75 6.604,0.91 11.672,6.703 17.088,10.512 4.561,4.133 10.141,8.465 13.943,13.547 l -1.451,0.125 c -5.553,0.023 -11.061,-0.266 -16.121,-2.082 -2.18,-2.93 -1.879,-7.039 -4.436,-9.812 -2.004,-3.172 -5.592,-5.539 -9.092,-6.438 -0.275,0.203 -0.707,0.078 -0.883,0.461 1.691,2.66 4.658,4.766 5.371,7.836 0.592,2.266 2.5,4.016 4.072,5.723 -4.832,-2.703 -10.275,-4.91 -15.301,-7.668 -2.307,-0.93 -7.395,-2.488 -7.395,-2.488 -10.521,-3.574 -8.725,-7.516 -18.297,-14.176 -3.188,-1.609 -8.008,-4.863 -11.691,-4.223 l -0.889,0.457 c 1.775,3.609 4.203,7 7.977,8.789 l 8.279,3.902 c -7.801,-0.949 -20.752,-1.375 -28.691,-0.859 0,0 -0.889,-0.129 -2.789,-1.414 -4.566,-3.891 -7.291,-10.105 -5.363,-16.348 1.871,-4.188 6.312,-6.592 7.508,-11.1 0.789,-3.068 1.619,-6.553 1.545,-9.631 l -0.793,0.275 c -5.439,1.947 -10.703,6.084 -10.852,12.291 -0.443,3.016 1.236,6.232 -0.801,8.916 -0.176,0.273 -0.443,0.145 -0.732,0.109 -0.672,-1.289 -0.482,-2.828 -0.654,-4.312 -0.561,-4.84 -1.557,-7.252 -6.689,-10.275 -3.719,-2.197 -12.668,-3.934 -12.668,-3.934 0,0 6.633,5.098 10.861,9.072 4.828,4.529 5.711,8.117 5.711,8.117 0.213,1.668 1.268,3.967 1.873,5.502 1.967,4.105 1.234,6.098 3.592,10.105 -0.473,0.379 -1.109,-0.367 -1.521,-0.508 -6.066,-4.977 -10.623,-12.697 -12.986,-19.924 -0.861,-0.004 -1.209,0.959 -1.66,1.531 -1.549,3.844 -0.289,8.213 1.988,11.639 1.592,2.344 4.051,3.496 5.902,5.625 l -0.264,0.207 c -3.695,-1.531 -7.223,-3.285 -10.488,-5.625 0.713,-3.23 -0.275,-6.27 -1.924,-8.953 -1.176,-0.564 -2.398,0.051 -3.428,-0.164 1.809,-0.695 3.777,-2 3.928,-4.137 -0.1,-3.656 -1.814,-7.016 -5.211,-8.66 -2.088,-0.963 -4.717,-1.795 -6.844,-0.363 -1.549,1.396 -1.48,3.656 -2.266,5.484 -0.295,-2.82 -0.004,-6.137 -2.5,-8.109 -2.65,-1.455 -6.879,-1.715 -9.607,-0.062 -1.771,1.275 -4.148,2.344 -4.332,4.764 -0.684,0.875 -1.051,2.031 -1.08,3.084 0.592,1.076 0.896,2.592 1.896,3.48 -1.936,-0.277 -3.592,0.443 -5.191,1.451 -1.016,1.32 -2.076,3.016 -1.609,4.752 0.141,1.26 -0.912,2.477 -0.08,3.539 -0.275,1.594 0.061,3.207 1.484,4.098 1.344,1.211 2.676,2.523 4.625,2.598 1.639,-0.09 3.248,-0.336 4.646,-1.273 -1.051,2.074 -1.99,4.801 -1.188,7.34 1.221,2.242 3.705,3.492 6.033,3.234 1.012,-0.453 1.676,0.777 2.791,0.668 2.961,0.871 4.016,-2.891 7.023,-1.965 0.717,-0.875 2.125,-0.605 2.369,-1.875 1.043,-2.801 0.188,-5.301 -1.275,-7.531 l 0.107,-0.078 c 1.795,1.793 3.387,4.562 6.119,4.492 1.684,-0.469 3.252,-1.625 4.285,-3.086 2.256,0.789 4.475,2.199 6.74,3.32 l 0.275,0.52 c -3.943,0.543 -7.949,0.84 -11.133,3.965 -1.344,1.332 -2.787,2.598 -4.416,3.41 -1.576,0.438 -3.232,0.68 -4.736,1.273 1.953,1.715 5.354,1.723 7.889,1.254 4.947,-1.383 9.084,-4.875 13.664,-7.223 2.451,0.289 4.404,1.574 5.801,3.555 -3.172,5.047 -9.008,8.336 -14.438,9.816 -7.359,-0.523 -14.979,-3.668 -22.291,-2.027 -2.268,0.543 -5.061,0.695 -6.5,2.785 4.928,0.434 10.393,-0.086 14.904,1.84 -4.348,0.348 -9.656,1.551 -11.697,5.91 0.057,0.34 -0.279,0.781 0.125,1.023 2.111,-0.902 4.199,-1.949 6.561,-2.109 6.398,0.465 12.723,1.246 18.084,-2.488 1.668,-1.195 3.516,-1.887 5.199,-3.176 -0.965,5.398 -6.152,9.68 -11.484,10.734 -3.127,1.355 -6.695,3.668 -7.379,7.09 3.348,-3.254 8.135,-0.438 11.807,-2.789 5.881,-2.859 8.26,-8.957 9.996,-14.789 l 0.092,0.012 c -0.832,4.695 0.137,9.117 2.301,13.109 0,0 0.619,4.137 0.961,6.512 0.336,2.375 1.92,4.422 1.92,4.422 0.795,-1.363 1.928,-7.367 1.023,-15.527 -0.908,-8.156 -0.908,-9.402 1.355,-13.258 2.264,-3.848 6.9,-4.871 6.9,-4.871 -1.137,1.137 -3.852,6.352 -4.863,9.289 -1.025,2.945 1.244,9.746 3.051,13.262 1.812,3.512 1.133,11.219 1.133,11.219 0,0 4.076,-6.578 5.088,-10.543 1.02,-3.965 -0.449,-8.039 -2.26,-13.027 -1.812,-4.988 -0.453,-6.684 0.791,-8.273 1.248,-1.582 4.881,-2.652 4.881,-2.652 6.229,-2.09 11.371,-2.113 18.047,-1.492 -3.244,1.348 -6.328,3.008 -8.371,6.219 -1.256,2.414 -3.812,4.164 -5.852,5.891 -1.072,0.605 -2.492,0.84 -3.273,1.812 10.93,4.281 15.293,-7.352 24.324,-10.301 4.617,-1.516 11.457,0.574 15.596,2.117 2.941,1.34 6.156,2.332 8.697,4.539 -1.664,0.191 -3.416,0.199 -5.023,0.586 -7.438,2.375 -13.08,7.496 -21.434,7.898 -1.146,0.301 -2.035,0.957 -2.016,0.969 9.275,3.145 21.301,1.578 29.324,-3.43 2.08,-1.688 4.508,-3.238 7.336,-2.52 3.225,1.379 6.188,3.379 9.5,4.516 6.145,1.863 10.145,2.707 16.801,2.836 0,0 3.32,0.355 3.996,0.691 6.092,1.336 10.207,7.754 13.439,12.793 h 0.336 c 1.516,-4.707 4.365,-9.137 8.213,-12.562 10.645,-7.57 13.023,-6.707 25.277,-10.418 2.855,-0.812 7.535,-1.824 10.086,-1.504 6.93,1.863 12.543,7.051 19.387,9.289 4.75,1.516 10.551,0.859 14.445,-2.102 0.703,-0.57 1.941,-1 2.078,-1.898 -3.789,0.477 -7.547,0.711 -10.965,-0.816 -5.652,-3.285 -11.836,-5.418 -18.676,-5.945 l 0.195,-0.23 c 5.699,-0.719 26.645,-3.031 32.152,-1.027 9.027,1.043 20.617,2.375 27.27,-4.668 0.051,-0.332 0.523,-0.766 0.094,-1.043 -2.277,0.184 -4.562,0.664 -6.836,0.473 -4.895,1.949 -10.973,0.238 -15.824,0.328 3.324,-1.281 6.699,-2.562 10.023,-3.848 5.609,-3.34 12.453,-1.816 17.438,1.566 3.473,3.234 4.512,8.473 2.996,13.043 -0.664,1.23 -1.191,2.852 -2.426,3.516 -5.18,0.48 -10.355,2.477 -13.113,7.43 -1.043,2.281 -2.234,4.711 -2.375,7.086 7.129,0.48 13.73,-3.848 16.969,-10.188 0.043,4.289 0.754,8.285 3.078,11.898 0.715,0.77 1.332,1.859 2.281,1.816 -0.711,-7.473 -3.703,-14.895 -1.566,-22.703 0.953,-3.902 0.281,-7.137 -1.043,-10.523 4.23,2.855 8.168,6.762 9.355,11.668 -1.742,8.406 0.699,12.836 0.699,12.836 l 1.141,1.914 c 2.375,3.785 5.895,6.672 9.93,8.262 3.605,-14.797 -6.539,-19.203 -8.578,-21.469 -2.039,-2.262 -2.039,-5.215 -2.039,-5.215 l 2.941,1.719 c 2.562,1.613 5.18,3.094 8.121,3.758 7.367,2.48 13.973,-1.375 20.38,3.336 2.848,1.477 4.133,4.52 5.703,6.852 0.528,-2.911 0.196,-5.579 -0.996,-8.001"
   id="path48"
   inkscape:connector-curvature="0"
   style="fill:#ffffff" />
	</g>
</g>
</svg>