<?xml version="1.0" encoding="UTF-8" standalone="no"?>
<!-- Created with Inkscape (http://www.inkscape.org/) -->

<svg
   xmlns:dc="http://purl.org/dc/elements/1.1/"
   xmlns:cc="http://creativecommons.org/ns#"
   xmlns:rdf="http://www.w3.org/1999/02/22-rdf-syntax-ns#"
   xmlns:svg="http://www.w3.org/2000/svg"
   xmlns="http://www.w3.org/2000/svg"
   xmlns:sodipodi="http://sodipodi.sourceforge.net/DTD/sodipodi-0.dtd"
   xmlns:inkscape="http://www.inkscape.org/namespaces/inkscape"
   width="395.07196mm"
   height="155.60011mm"
   viewBox="0 0 395.07196 155.60011"
   version="1.1"
   id="svg830"
   inkscape:version="0.92.4 (5da689c313, 2019-01-14)"
   sodipodi:docname="nisra-logo.svg">
  <defs
     id="defs824" />
  <sodipodi:namedview
     id="base"
     pagecolor="#ffffff"
     bordercolor="#666666"
     borderopacity="1.0"
     inkscape:pageopacity="0.0"
     inkscape:pageshadow="2"
     inkscape:zoom="0.49497475"
     inkscape:cx="748.23608"
     inkscape:cy="-108.6256"
     inkscape:document-units="mm"
     inkscape:current-layer="layer1"
     showgrid="false"
     fit-margin-top="0"
     fit-margin-left="0"
     fit-margin-right="0"
     fit-margin-bottom="0"
     inkscape:window-width="1718"
     inkscape:window-height="1368"
     inkscape:window-x="3633"
     inkscape:window-y="0"
     inkscape:window-maximized="0" />
  <metadata
     id="metadata827">
    <rdf:RDF>
      <cc:Work
         rdf:about="">
        <dc:format>image/svg+xml</dc:format>
        <dc:type
           rdf:resource="http://purl.org/dc/dcmitype/StillImage" />
        <dc:title />
      </cc:Work>
    </rdf:RDF>
  </metadata>
  <g
     inkscape:label="Layer 1"
     inkscape:groupmode="layer"
     id="layer1"
     transform="translate(41.775165,-133.78986)">
    <path
       style="fill:#00205b;stroke-width:1.00000012;fill-opacity:1"
       d="M 1052.4609 446.28906 L 1044.7109 446.64453 C 1034.9168 447.0943 1031.3088 449.34238 1028.7344 456.60156 C 1027.2541 460.77522 1026.631 461.50948 1024.9609 461.04297 C 1008.044 456.31746 990.5844 459.44486 981.13672 468.89258 C 975.36353 474.66573 972.99805 480.80139 972.99805 490 C 972.99805 499.07487 975.2334 504.9941 980.94922 511.05469 L 984.21094 514.51367 L 980.28711 516.71875 C 974.90227 519.74517 972.46094 524.01719 972.46094 530.41797 C 972.46094 536.27268 974.22128 540.37808 978.00391 543.35352 L 980.58594 545.38477 L 977.27344 547.0625 C 969.86405 550.81712 967.22756 555.22272 967.16406 563.94727 C 967.11538 570.63801 968.65961 574.45912 973.12305 578.69336 C 977.31662 582.67158 986.60084 586.55388 994.23828 587.52344 C 1003.6821 588.72234 1023.65 587.94113 1031.9668 586.04688 C 1041.1128 583.96375 1048.74 579.54832 1052.1855 574.3418 C 1056.0604 568.48644 1056.6186 558.52039 1053.4395 551.95312 C 1050.8756 546.65707 1045.1105 542.02207 1039.0664 540.39453 C 1036.8187 539.78932 1025.1632 538.73315 1013.1641 538.04883 C 994.08912 536.96097 991.00853 536.55254 988.6543 534.80273 C 985.26028 532.28016 984.53 527.19966 987.14062 524.26758 C 990.46132 520.53809 994.26004 519.64367 1001.8301 520.80859 C 1033.0652 525.61521 1053.3475 498.61979 1037.8438 472.87305 C 1034.3922 467.14117 1034.3513 466.95339 1035.9004 463.70508 C 1037.7438 459.83934 1042.4682 457.5 1048.4297 457.5 L 1052.4609 457.5 L 1052.4609 451.89453 L 1052.4609 446.28906 z M 1007.4238 469.69922 C 1012.8537 469.52857 1018.4944 471.48068 1023.0781 476.06445 C 1032.7485 485.73487 1030.4734 501.88967 1018.5547 508.17578 C 1010.7104 512.313 999.56381 510.92198 993.31641 505.02539 C 989.21059 501.15017 987.46094 496.7656 987.46094 490.34766 C 987.46094 478.08751 997.05772 470.02501 1007.4238 469.69922 z M 989.33203 549.54883 L 1005.6465 550.08398 C 1028.9328 550.84957 1035.1066 551.94453 1039.1914 556.0293 C 1042.8425 559.68047 1043.3338 562.91262 1040.9414 567.53906 C 1039.0476 571.2012 1033.2493 574.22451 1024.6055 576.05664 C 1020.9513 576.83114 1014.3609 577.43623 1009.9609 577.39844 C 991.73364 577.24423 980.96094 571.4733 980.96094 561.86328 C 980.96094 557.86144 981.42955 556.92024 985.14648 553.45312 L 989.33203 549.54883 z "
       transform="matrix(0.26458333,0,0,0.26458333,-41.775165,133.78986)"
       id="path881" />
    <path
       style="fill:#00205b;stroke-width:0.26458335;fill-opacity:1"
       d="m 135.72417,280.37281 c -1.79725,-0.39101 -3.85796,-1.35242 -5.05157,-2.35677 -0.7288,-0.61324 -2.46307,-3.4749 -2.46307,-4.06422 0,-0.14175 0.5357,-0.33116 1.19044,-0.4209 0.65474,-0.0897 1.47299,-0.23408 1.81833,-0.32076 0.51429,-0.12907 0.65861,-0.0351 0.79775,0.51923 0.51589,2.05546 3.25177,3.61383 6.67969,3.80477 3.56459,0.19855 6.07252,-1.07497 6.56908,-3.33577 0.3255,-1.482 -0.84114,-3.19201 -2.6355,-3.86299 -0.29104,-0.10884 -2.27416,-0.53615 -4.40693,-0.9496 -4.41143,-0.85517 -6.44884,-1.68877 -7.63144,-3.12238 -1.54088,-1.86795 -1.77656,-4.61681 -0.59549,-6.94564 1.40977,-2.77977 4.13249,-4.0753 8.53282,-4.06011 3.014,0.0104 5.06072,0.55542 6.65642,1.7725 1.31896,1.006 2.56642,2.69002 2.66654,3.59971 0.0628,0.57108 -0.0847,0.6695 -1.49254,0.99535 -0.85926,0.19887 -1.57859,0.3304 -1.59851,0.29228 -1.32904,-2.54341 -3.39587,-3.76338 -6.35477,-3.75096 -2.20566,0.009 -4.07704,0.73183 -4.81577,1.85945 -0.70219,1.07186 -0.60589,2.84106 0.20163,3.70442 0.96634,1.03315 1.27043,1.13612 5.8462,1.97969 5.01762,0.92503 6.49205,1.49574 7.85003,3.03848 1.54787,1.75847 2.04761,4.32468 1.31704,6.76311 -1.15497,3.85495 -7.26614,6.12607 -13.08038,4.86111 z"
       id="path875" />
    <path
       style="fill:#00205b;stroke-width:1.00000012;fill-opacity:1"
       d="M 849.46094 459.07812 C 840.35379 459.05197 836.4934 459.50081 830.90234 461.24219 C 819.57627 464.76985 811.50475 472.03483 809.87891 480.16406 C 809.19795 483.56896 808.87169 483.38594 818.60352 485.05664 C 822.08333 485.65403 822.29951 485.52368 823.41602 482.14062 C 826.13973 473.88769 836.93605 468.91162 850.37695 469.71484 C 864.34896 470.54978 870.32905 475.92054 871.22461 488.4375 L 871.70898 495.1875 L 856.33594 495.875 C 831.91735 496.96925 821.74715 500.01426 814.05078 508.5332 C 808.65135 514.50973 807.0991 518.73441 807.08398 527.5 C 807.07299 533.69465 807.53764 535.90246 809.75195 540.1875 C 813.45374 547.35103 819.42413 551.6964 828.96094 554.16602 C 831.96513 554.94407 837.09948 555.27906 841.82227 555.00391 C 854.02005 554.29354 863.29968 549.33601 868.66797 540.66211 C 871.08033 536.76428 872.42459 537.81579 872.44727 543.625 C 872.45566 545.61874 872.74238 548.65626 873.08594 550.375 L 873.71094 553.5 L 880.48242 553.5 L 887.25195 553.5 L 886.38086 549.75 C 885.90192 547.68751 885.49741 533.39999 885.47852 518 C 885.46124 502.60001 884.97381 487.08772 884.39648 483.5293 C 882.96612 474.7131 879.06735 467.84841 873.47656 464.29883 C 866.89399 460.11954 862.27236 459.11592 849.46094 459.07812 z M 871.71875 506.5 L 871.24414 514.25 C 870.42376 527.65073 863.17412 538.218 851.91211 542.43164 L 851.91211 542.43359 C 835.44104 548.59623 819.60663 539.5011 821.89453 525.19336 C 823.94179 512.39047 835.81766 506.54586 859.83984 506.51562 L 871.71875 506.5 z "
       transform="matrix(0.26458333,0,0,0.26458333,-41.775165,133.78986)"
       id="path873" />
    <path
       style="fill:#00205b;stroke-width:1.00000012;fill-opacity:1"
       d="M 1111.4473 459.03516 C 1105.8591 459.03862 1100.2666 459.83008 1096.209 461.4082 C 1079.9835 467.71884 1070.8743 482.05847 1069.7852 503 C 1068.3914 529.79874 1080.8829 550.51579 1100.8164 554.46094 C 1135.1037 561.24697 1160.2082 529.10769 1150.4434 490.92773 C 1146.8116 476.72782 1138.0209 465.80717 1126.6641 461.38867 C 1122.6208 459.81559 1117.0355 459.03169 1111.4473 459.03516 z M 1110.2422 470.24609 C 1119.6524 469.98015 1128.9662 475.55776 1133.5293 485.94922 C 1134.5076 488.17717 1135.8034 493.59361 1136.4082 497.98633 C 1139.0721 517.33324 1133.0761 535.1631 1121.9824 540.88281 C 1117.3133 543.29011 1107.652 543.96073 1102.4609 542.23828 C 1097.2753 540.51761 1090.0578 532.81963 1088.1191 526.94141 C 1082.1738 508.9154 1084.9469 486.27936 1094.2051 477.25781 C 1098.9144 472.66888 1104.5961 470.40566 1110.2422 470.24609 z "
       transform="matrix(0.26458333,0,0,0.26458333,-41.775165,133.78986)"
       id="path869" />
    <path
       style="fill:#00205b;stroke-width:0.26458335;fill-opacity:1"
       d="m 311.23095,280.49419 c -2.51272,-0.63283 -4.50553,-2.37735 -5.39197,-4.7201 -0.40285,-1.06474 -0.47667,-2.46954 -0.56147,-10.68478 l -0.0976,-9.45885 h 1.87002 1.87002 v 8.55093 c 0,9.72531 0.13306,10.65789 1.71918,12.05053 2.31709,2.03445 5.62994,1.55514 8.02024,-1.16039 1.89182,-2.14922 1.98707,-2.67291 2.10442,-11.56972 l 0.10379,-7.87135 h 1.83139 1.8314 v 12.30312 12.30313 h -1.71979 -1.7198 l -0.008,-2.4474 -0.008,-2.4474 -0.62458,1.01619 c -1.6057,2.61257 -3.88649,4.09436 -6.58211,4.27629 -0.90218,0.0609 -2.08868,-0.002 -2.63663,-0.1402 z"
       id="path865" />
    <path
       style="fill:#00205b;stroke-width:0.26458335;fill-opacity:1"
       d="m -23.890024,268.45391 c -1.94444,-6.49256 -3.59529,-12.03388 -3.66856,-12.31404 -0.12213,-0.46703 0.0211,-0.50937 1.72308,-0.50937 h 1.85627 l 0.50061,1.65364 c 0.27534,0.90951 1.4482,4.95651 2.60636,8.99334 1.15815,4.03683 2.17348,7.34081 2.25626,7.34218 0.0828,10e-4 1.27386,-4.01586 2.64683,-8.92718 l 2.49631,-8.92969 1.37677,-0.0796 1.37677,-0.0796 0.41136,1.40249 c 2.7692597,9.44147 5.1469897,16.93493 5.2723797,16.61604 0.0858,-0.21828 1.33183,-4.32593 2.7689,-9.12812 l 2.61285001,-8.73125 1.49000999,-0.0794 c 0.8195,-0.0436 1.49001,0.003 1.49001,0.10421 0,0.10096 -1.5669,5.64331 -3.48198999,12.31633 l -3.48198001,12.13277 h -1.53485 -1.53485 l -0.37377,-1.25677 c -3.2616397,-10.96711 -5.0454697,-16.71602 -5.1533397,-16.60816 -0.0731,0.0731 -1.22867,4.09281 -2.568,8.93275 l -2.43514,8.79988 -1.55847,0.0771 -1.55847,0.0771 z"
       id="path863" />
    <path
       style="fill:#00205b;stroke-width:0.26458335;fill-opacity:1"
       d="m 9.4474757,268.45391 c -1.94444,-6.49256 -3.59529,-12.03388 -3.66855,-12.31404 -0.12214,-0.46703 0.0211,-0.50937 1.72307,-0.50937 h 1.85627 l 0.50061,1.65364 c 0.2753403,0.90951 1.4482003,4.95651 2.6063603,8.99334 1.15816,4.03683 2.17348,7.34081 2.25626,7.34218 0.0828,10e-4 1.27386,-4.01586 2.64684,-8.92718 l 2.4963,-8.92969 1.37677,-0.0796 1.37677,-0.0796 0.41136,1.40249 c 2.76926,9.44147 5.14699,16.93493 5.27238,16.61604 0.0858,-0.21828 1.33183,-4.32593 2.7689,-9.12812 l 2.61285,-8.73125 1.49001,-0.0794 c 0.81951,-0.0436 1.49001,0.003 1.49001,0.10421 0,0.10096 -1.56689,5.64331 -3.48199,12.31633 l -3.48198,12.13277 h -1.53485 -1.53485 l -0.37376,-1.25677 c -3.26165,-10.96711 -5.04548,-16.71602 -5.15334,-16.60816 -0.0731,0.0731 -1.22868,4.09281 -2.568,8.93275 l -2.43515,8.79988 -1.55847,0.0771 -1.55847,0.0771 z"
       id="path861" />
    <path
       style="fill:#00205b;stroke-width:0.26458335;fill-opacity:1"
       d="m 43.049556,268.45391 c -1.94444,-6.49256 -3.59529,-12.03388 -3.66855,-12.31404 -0.12213,-0.46703 0.0211,-0.50937 1.72307,-0.50937 h 1.85628 l 0.50061,1.65364 c 0.27533,0.90951 1.44819,4.95651 2.60635,8.99334 1.15816,4.03683 2.17348,7.34081 2.25627,7.34218 0.0828,10e-4 1.27386,-4.01586 2.64683,-8.92718 l 2.4963,-8.92969 1.37677,-0.0796 1.37677,-0.0796 0.41137,1.40249 c 2.76926,9.44147 5.14698,16.93493 5.27237,16.61604 0.0858,-0.21828 1.33184,-4.32593 2.7689,-9.12812 l 2.61285,-8.73125 1.49001,-0.0794 c 0.81951,-0.0436 1.49001,0.003 1.49001,0.10421 0,0.10096 -1.56689,5.64331 -3.48198,12.31633 l -3.48199,12.13277 h -1.53485 -1.53484 l -0.37377,-1.25677 c -3.26165,-10.96711 -5.04547,-16.71602 -5.15334,-16.60816 -0.0731,0.0731 -1.22867,4.09281 -2.568,8.93275 l -2.43514,8.79988 -1.55847,0.0771 -1.55848,0.0771 z"
       id="path859" />
    <path
       style="fill:#00205b;stroke-width:0.26458335;fill-opacity:1"
       d="m 73.969936,277.59091 v -2.64583 h 2.64583 2.64584 v 2.64583 2.64584 h -2.64584 -2.64583 z"
       id="path857" />
    <path
       style="fill:#00205b;stroke-width:0.26458335;fill-opacity:1"
       d="M 88.786606,267.93362 V 255.6305 h 1.70949 1.70949 l 0.0764,2.29783 0.0765,2.29784 0.75893,-1.14888 c 1,-1.51381 1.86883,-2.29681 3.4744,-3.13121 1.10316,-0.57329 1.67453,-0.68726 3.439584,-0.68609 3.51398,0.002 5.96021,1.49479 7.32914,4.47155 0.59357,1.29074 0.61041,1.55621 0.69226,10.91406 l 0.0839,9.59115 h -1.86983 -1.86983 l -0.006,-9.06198 c -0.007,-10.28703 -0.0687,-10.65239 -2.03273,-11.9521 -3.037574,-2.01017 -7.369054,-0.35741 -9.145684,3.4897 -0.54791,1.18645 -0.58311,1.68153 -0.66745,9.38844 l -0.089,8.13594 h -1.83488 -1.83485 v -12.30313 z"
       id="path855" />
    <path
       style="fill:#00205b;stroke-width:0.26458335;fill-opacity:1"
       d="M 116.83244,267.93362 V 255.6305 h 1.85209 1.85208 v 12.30312 12.30313 h -1.85208 -1.85209 z"
       id="path853" />
    <path
       style="fill:#00205b;stroke-width:0.26458335;fill-opacity:1"
       d="M 156.25536,267.93362 V 255.6305 h 1.71979 1.7198 l 0.0152,2.84427 0.0152,2.84427 0.61303,-1.32292 c 1.56087,-3.3683 3.5784,-4.9627 6.33099,-5.00319 l 1.62445,-0.0239 0.0782,1.78594 0.0782,1.78593 h -0.97358 c -2.64698,0 -5.27547,1.91394 -6.61631,4.81767 l -0.76866,1.66463 -0.0874,7.60677 -0.0874,7.60677 h -1.83085 -1.83085 z"
       id="path851" />
    <path
       style="fill:#00205b;stroke-width:0.26458335;fill-opacity:1"
       d="m 202.02828,277.59091 v -2.64583 h 2.64583 2.64584 v 2.64583 2.64584 h -2.64584 -2.64583 z"
       id="path849" />
    <path
       style="fill:#00205b;stroke-width:0.26458335;fill-opacity:1"
       d="m 270.51772,267.93362 -4.3859,-12.32332 2.1086,0.0762 2.1086,0.0763 3.28001,9.525 c 1.80401,5.23875 3.34963,9.70359 3.43469,9.92187 0.085,0.21828 1.66605,-4.06797 3.51332,-9.525 l 3.35868,-9.92187 1.6442,-0.0788 c 0.90432,-0.0433 1.64086,0.0162 1.63676,0.13229 -0.004,0.11608 -1.87949,5.62841 -4.16758,12.2496 l -4.16018,12.03854 -1.99266,0.0762 -1.99265,0.0762 z"
       id="path847" />
    <path
       style="fill:#00205b;stroke-width:0.26458335;fill-opacity:1"
       d="m 290.6637,277.59091 v -2.64583 h 2.64583 2.64584 v 2.64583 2.64584 h -2.64584 -2.64583 z"
       id="path845" />
    <path
       style="fill:#00205b;stroke-width:0.26458335;fill-opacity:1"
       d="m 333.26162,263.568 v -16.66875 h 1.84909 1.84907 l 0.0692,10.56896 0.0691,10.56895 5.6288,-6.20333 5.62879,-6.20333 h 2.02748 2.02748 l -0.66535,0.7276 c -3.2516,3.55582 -6.842,7.76071 -6.842,8.01299 0,0.2226 6.93026,13.17376 8.38981,15.67876 0.0673,0.11549 -0.79116,0.17502 -1.90767,0.13229 l -2.03002,-0.0777 -3.50861,-6.70186 c -1.92974,-3.68602 -3.58902,-6.69469 -3.68729,-6.68593 -0.0983,0.009 -1.30704,1.32121 -2.68618,2.91654 l -2.50754,2.9006 v 3.85147 3.85148 h -1.85208 -1.85208 z"
       id="path843" />
    <path
       style="fill:#00205b;stroke-width:0.26458335;fill-opacity:1"
       d="m 116.56786,249.01591 v -2.11666 h 2.11667 2.11666 v 2.11666 2.11667 h -2.11666 -2.11667 z"
       id="path841" />
    <path
       style="fill:#407ec9;stroke-width:0.26458335;fill-opacity:1"
       d="m -1.3425443,230.22559 c -10.1891697,-0.99024 -20.5373597,-5.25888 -28.6687697,-11.82591 -3.87767,-3.13166 -8.02319,-7.84639 -10.84369,-12.33263 -0.95743,-1.52287 -1.07794,-1.85936 -0.76832,-2.14543 0.20197,-0.18661 10.428,-6.14278 22.72451,-13.23593 19.88365971,-11.46976 22.4304697,-12.86875 23.0187497,-12.64446 0.70441,0.26856 44.7028803,25.63178 45.0548103,25.97216 0.25087,0.24263 -2.29235,4.15901 -4.48237,6.90252 -7.97397,9.98928 -20.24319,16.99731 -33.11255,18.91352 -3.4266503,0.51021 -9.7531303,0.70417 -12.9223703,0.39616 z"
       id="path839" />
    <path
       style="fill:#cedc00;stroke-width:0.26458335;fill-opacity:1"
       d="m 45.994136,220.00078 -4.29559,-2.51384 2.57003,-2.89914 c 3.77738,-4.26108 8.32042,-10.89521 7.79517,-11.38317 -0.10259,-0.0953 -10.75332,-6.26949 -23.66829,-13.72042 L 4.9136857,175.93707 v -16.24495 -16.24495 h 1.46563 c 4.1492303,0 10.3348003,1.09679 15.0708303,2.67227 12.90433,4.29275 23.54518,13.30532 30.00724,25.41549 6.62872,12.42248 7.91604,27.90673 3.43825,41.35633 -1.0019,3.00935 -4.07488,9.69053 -4.43609,9.64484 -0.0934,-0.0118 -2.10284,-1.15271 -4.46541,-2.53532 z"
       id="path837" />
    <path
       style="fill:#00205b;stroke-width:0.26458335;fill-opacity:1"
       d="m 187.3439,217.62801 c -9.83829,-1.06136 -18.12186,-5.69944 -21.39028,-11.97671 -0.50025,-0.96076 -1.21377,-2.59951 -1.5856,-3.64166 l -0.67606,-1.89481 1.9041,-0.41733 c 1.04725,-0.22953 3.7426,-0.81513 5.98967,-1.30132 l 4.08558,-0.884 0.57196,1.63684 c 1.42034,4.06478 3.88117,6.15931 9.03491,7.69003 3.02719,0.89912 8.96165,1.17715 11.85531,0.55542 4.09136,-0.87906 6.69772,-2.48664 8.20698,-5.062 1.29625,-2.21188 1.34788,-5.42836 0.12561,-7.82422 -0.66602,-1.30551 -2.6759,-3.09423 -4.32526,-3.84933 -0.75736,-0.34673 -5.59437,-1.71302 -10.74891,-3.03619 -5.15454,-1.32317 -10.27074,-2.75336 -11.36932,-3.17821 -5.50829,-2.13017 -9.57152,-6.60154 -11.04801,-12.15777 -0.63882,-2.40397 -0.62766,-8.21115 0.0204,-10.58333 0.66639,-2.4395 2.03972,-5.16517 3.52949,-7.00505 5.79354,-7.15511 17.72706,-10.06779 29.33402,-7.15973 5.09392,1.27625 10.55275,4.57418 13.05323,7.88604 1.13915,1.5088 2.2991,3.83547 2.55833,5.13159 l 0.16081,0.80409 -5.39538,1.34981 c -2.96745,0.7424 -5.5858,1.42288 -5.81853,1.51219 -0.31895,0.12239 -0.58932,-0.20054 -1.09783,-1.31127 -1.90077,-4.15185 -6.30082,-6.49015 -12.21267,-6.49015 -7.29433,0 -11.92066,3.33987 -11.89839,8.58977 0.009,2.21507 0.59148,3.50527 2.2625,5.01494 1.9526,1.76405 4.50761,2.70701 13.33468,4.92131 4.51411,1.13238 9.10043,2.38106 10.19184,2.77485 8.81578,3.18076 13.0311,8.5809 13.42143,17.19385 0.18703,4.12696 -0.31274,6.78013 -1.89253,10.04713 -1.4161,2.9285 -3.14829,5.08094 -5.57577,6.92856 -5.09133,3.87512 -10.75093,5.59816 -18.91771,5.75941 -2.54662,0.0503 -5.10646,0.04 -5.68855,-0.0228 z"
       id="path835" />
    <path
       style="fill:#00205b;stroke-width:0.26458335;fill-opacity:1"
       d="m 81.642856,182.07633 v -34.66041 l 6.94531,0.006 6.94531,0.006 11.906254,20.01334 c 6.54844,11.00734 12.88672,21.86133 14.08507,24.11998 1.19835,2.25865 2.29968,4.2275 2.4474,4.37522 0.18171,0.18171 0.26858,-7.62113 0.26858,-24.12601 v -24.39453 h 4.89479 4.89479 v 34.66557 34.66558 l -5.72742,-0.0713 -5.72742,-0.0713 -13.47338,-21.96042 C 101.69178,182.56582 94.750376,170.95723 93.676806,168.84718 l -1.95195,-3.83646 -0.0139,25.86302 -0.0139,25.86302 h -5.02709 -5.02708 z"
       id="path833" />
    <path
       style="fill:#00205b;stroke-width:0.26458335;fill-opacity:1"
       d="m 146.20119,182.07633 v -34.66041 h 6.21771 6.21771 v 34.66041 34.66042 h -6.21771 -6.21771 z"
       id="path831" />
    <path
       style="fill:#00205b;stroke-width:1.00000012;fill-opacity:1"
       d="M 1016.4609 51.363281 L 1016.4609 182.43164 L 1016.4609 313.49805 L 1039.9531 313.49805 L 1063.4434 313.49805 L 1063.7031 259.74805 L 1063.9609 205.99805 L 1096.5781 205.73438 C 1121.9274 205.5296 1129.4111 205.75238 1130.1699 206.73438 C 1130.7068 207.42932 1140.1056 231.72952 1151.0547 260.73438 L 1170.9609 313.4707 L 1195.7109 313.48633 C 1209.3234 313.49396 1220.4609 313.30653 1220.4609 313.07031 C 1220.4609 312.83428 1210.3359 287.15858 1197.9609 256.01172 C 1185.586 224.86486 1175.4668 199.06907 1175.4668 198.68945 C 1175.4693 198.30984 1179.1915 196.09941 1183.7383 193.77734 C 1206.1435 182.33486 1218.7964 163.76485 1221.4121 138.48242 C 1225.2463 101.422 1207.9272 70.728069 1176.2832 58.498047 C 1160.4873 52.393127 1158.5504 52.252105 1084.2109 51.787109 L 1016.4609 51.363281 z M 1063.9609 89 L 1100.4609 89.007812 C 1135.836 89.015523 1137.192 89.087876 1144.4609 91.341797 C 1153.6288 94.184531 1160.3978 98.364751 1165.0762 104.07422 C 1174.1249 115.11686 1175.7624 132.31517 1169.1172 146.5 C 1164.3834 156.60457 1152.9277 164.16734 1138.041 167.01562 L 1138.041 167.01758 C 1132.149 168.14486 1122.2567 168.5 1096.8613 168.5 L 1063.4395 168.5 L 1063.7012 128.75 L 1063.9609 89 z "
       transform="matrix(0.26458333,0,0,0.26458333,-41.775165,133.78986)"
       id="path829" />
    <path
       style="fill:#00205b;stroke-width:1.00000012;fill-opacity:1"
       d="M 1394.9609 51.496094 L 1366.0449 51.748047 L 1337.1289 52 L 1293.7949 181.99805 C 1269.9625 253.49343 1250.4626 312.3271 1250.4609 312.74609 C 1250.4609 313.16033 1259.4433 313.5 1270.4199 313.5 L 1290.377 313.5 L 1300.4648 282.49023 L 1310.5527 251.48047 L 1361.1504 251.74023 L 1411.75 252 L 1422.2402 282.75 L 1432.7324 313.5 L 1457.6699 313.5 C 1478.9421 313.5 1482.5611 313.28617 1482.2852 312.04883 C 1482.1074 311.25101 1462.3859 252.30015 1438.4609 181.04688 L 1394.9609 51.496094 z M 1361.3418 97.195312 C 1361.4229 97.210437 1361.4609 97.378341 1361.4609 97.681641 C 1361.4609 98.001086 1369.786 123.84822 1379.9609 155.12109 C 1390.136 186.39396 1398.4609 212.32256 1398.4609 212.74023 C 1398.4609 213.15799 1381.3835 213.5 1360.5098 213.5 L 1322.5566 213.5 L 1323.8691 209.25 C 1324.591 206.91248 1332.9417 181.14998 1342.4258 152 C 1355.7548 111.0328 1360.5582 97.049111 1361.3418 97.195312 z "
       transform="matrix(0.26458333,0,0,0.26458333,-41.775165,133.78986)"
       id="path825" />
    <path
       style="fill:#00205b;stroke-width:0.26458335;fill-opacity:1"
       d="m -31.251904,193.76128 c -0.35124,-2.45237 -0.25471,-13.16048 0.13872,-15.38911 0.96254,-5.4524 2.32939,-9.80934 4.52374,-14.4198 2.80148,-5.88605 5.85115,-10.22937 10.32131,-14.69952 9.4250397,-9.42504 22.0455397,-14.99369 34.87414,-15.38779 l 2.44753,-0.0752 -1.4e-4,4.98925 c -1.2e-4,4.64371 -0.0322,4.97679 -0.46315,4.8095 -1.11785,-0.43394 -5.98896,-1.4921 -8.53302,-1.85365 -1.52786,-0.21713 -4.2959603,-0.39696 -6.1513503,-0.39962 l -3.37344,-0.005 v 17.27525 17.27527 l -11.04636,6.37752 c -6.0754897,3.50764 -13.6286797,7.86786 -16.7848597,9.68938 l -5.7385,3.31185 z"
       id="path1397" />
  </g>
</svg>
