<?xml version="1.0" encoding="UTF-8" standalone="no"?>
<!-- Created with Inkscape (http://www.inkscape.org/) -->

<svg
   version="1.1"
   id="svg1"
   width="331.54779"
   height="132.32777"
   viewBox="0 0 331.54779 132.32777"
   sodipodi:docname="white bilingual.svg"
   inkscape:version="1.3.2 (091e20e, 2023-11-25, custom)"
   xmlns:inkscape="http://www.inkscape.org/namespaces/inkscape"
   xmlns:sodipodi="http://sodipodi.sourceforge.net/DTD/sodipodi-0.dtd"
   xmlns="http://www.w3.org/2000/svg"
   xmlns:svg="http://www.w3.org/2000/svg">
  <defs
     id="defs1">
    <clipPath
       clipPathUnits="userSpaceOnUse"
       id="clipPath8">
      <path
         d="M 0,0 H 595.276 V 419.528 H 0 Z"
         transform="translate(-36.283501,-277.0617)"
         id="path8" />
    </clipPath>
    <clipPath
       clipPathUnits="userSpaceOnUse"
       id="clipPath10">
      <path
         d="M 0,0 H 595.276 V 419.528 H 0 Z"
         transform="translate(-72.063302,-299.6382)"
         id="path10" />
    </clipPath>
    <clipPath
       clipPathUnits="userSpaceOnUse"
       id="clipPath12">
      <path
         d="M 0,0 H 595.276 V 419.528 H 0 Z"
         transform="translate(-88.4755,-322.99861)"
         id="path12" />
    </clipPath>
  </defs>
  <sodipodi:namedview
     id="namedview1"
     pagecolor="#ffffff"
     bordercolor="#666666"
     borderopacity="1.0"
     inkscape:showpageshadow="2"
     inkscape:pageopacity="0.0"
     inkscape:pagecheckerboard="true"
     inkscape:deskcolor="#d1d1d1"
     inkscape:zoom="2.9656051"
     inkscape:cx="139.76911"
     inkscape:cy="113.80477"
     inkscape:window-width="3440"
     inkscape:window-height="1369"
     inkscape:window-x="1912"
     inkscape:window-y="-8"
     inkscape:window-maximized="1"
     inkscape:current-layer="g1">
    <inkscape:page
       x="0"
       y="0"
       inkscape:label="2"
       id="page1"
       width="331.54779"
       height="132.32777"
       margin="0"
       bleed="0" />
  </sodipodi:namedview>
  <g
     id="g1"
     inkscape:groupmode="layer"
     inkscape:label="2"
     transform="translate(-48.377999,-114.91441)">
    <g
       id="g2"
       style="fill:#ffffff">
      <path
         id="path2"
         d="M 5.7200047,-6.6095906 H 4.7590672 v 4.6640625 C 4.5364109,-2.3791219 4.3723484,-2.6603719 4.3606297,-2.7189656 L 2.0403172,-6.6095906 H 0.72781719 V -2.15625e-4 H 1.6770359 V -4.9572469 c 0.058594,0.1289063 0.2929688,0.6328125 0.3632813,0.7382813 l 2.5898437,4.218749975 h 1.0898438 z m 5.6044923,4.1484375 c 0,-1.3242188 -0.761719,-2.5195313 -2.2382814,-2.5195313 -1.4882812,0 -2.296875,1.1835938 -2.296875,2.5195313 0,1.1132812 0.5859375,2.55468748 2.2265625,2.55468748 1.2421879,0 2.3085939,-0.890625 2.3085939,-2.55468748 z m -1.160156,0 c 0,0.5039062 -0.09375,1.66406248 -1.1132816,1.66406248 -1.1015625,0 -1.1015625,-1.40624998 -1.1015625,-1.65234378 0,-0.7617187 0.234375,-1.6289062 1.125,-1.6289062 0.8320312,0 1.0898441,0.7734375 1.0898441,1.6171875 z m 2.276367,2.460937475 h 1.089844 V -1.9806844 c 0,-0.75 0.1875,-1.2421875 0.375,-1.453125 0.351562,-0.4101562 0.761718,-0.3984375 1.019531,-0.3984375 v -1.1835937 c -1.042969,-0.058594 -1.382813,0.9492187 -1.5,1.3007812 v -1.171875 h -0.984375 z m 6.134765,-0.867187495 c -0.117187,0.0117188 -0.1875,0.0117188 -0.28125,0.0117188 -0.5625,0 -0.796875,-0.1171875 -0.796875,-0.78515618 v -2.3789063 h 0.984375 v -0.8671875 h -0.984375 v -1.3476562 l -0.902343,0.082031 -0.09375,1.265625 h -0.679688 v 0.8671875 h 0.609375 v 2.5195313 c 0,0.56250003 0.03516,0.87890628 0.328125,1.20703128 0.222656,0.2578125 0.679688,0.38671875 1.042969,0.38671875 0.210937,0 0.527344,-0.03515625 0.773437,-0.093750005 z m 1.025391,0.867187495 h 1.089844 V -2.3322469 c 0,-0.5742187 0.05859,-0.9023437 0.210937,-1.265625 0.140625,-0.2929687 0.515625,-0.5273437 0.902344,-0.5273437 0.738281,0 0.738281,0.7382812 0.738281,1.1484375 v 2.976562475 h 1.089844 V -3.1525594 c 0,-1.3476562 -0.445312,-1.921875 -1.5,-1.921875 -0.996094,0 -1.3125,0.7617188 -1.441406,1.0546875 V -6.6095906 H 19.600864 Z M 28.161411,-1.5588094 c -0.105469,0.2695313 -0.316406,0.79687503 -1.101563,0.79687503 -0.386718,0 -0.703125,-0.140625 -0.902343,-0.44531253 -0.28125,-0.3867187 -0.269532,-0.7734375 -0.257813,-1.1015625 h 3.339844 c 0.03516,-1.4179687 -0.609375,-2.671875 -2.191406,-2.671875 -1.441407,0 -2.296875,1.1132813 -2.296875,2.5546875 0,1.2304688 0.632812,2.51953128 2.238281,2.51953128 0.960937,0 1.816406,-0.43359375 2.167969,-1.51171878 z m -2.261719,-1.4648437 c 0.02344,-0.2578125 0.05859,-0.4570313 0.222656,-0.7148438 0.210938,-0.3164062 0.503907,-0.46875 0.878907,-0.46875 0.375,0 0.65625,0.1640625 0.855468,0.421875 0.210938,0.2929688 0.222657,0.515625 0.234375,0.7617188 z m 4.456055,3.023437475 h 1.089844 V -1.9806844 c 0,-0.75 0.1875,-1.2421875 0.375,-1.453125 0.351562,-0.4101562 0.761718,-0.3984375 1.019531,-0.3984375 v -1.1835937 c -1.042969,-0.058594 -1.382813,0.9492187 -1.5,1.3007812 v -1.171875 h -0.984375 z m 3.524414,0 h 1.089844 V -2.2853719 c 0,-1.6757812 0.84375,-1.734375 1.089843,-1.734375 0.1875,0 0.75,0.023438 0.75,1.1484375 v 2.871093775 h 1.101563 V -2.8947469 c 0,-0.6445312 0.02344,-2.0859375 -1.558594,-2.0859375 -0.914062,0 -1.289062,0.8203125 -1.476562,1.2304688 v -1.1367188 h -0.996094 z m 9.670898,0 V -6.6095906 h -1.183593 v 6.609374975 z m 1.5,0 h 1.089844 V -1.9806844 c 0,-0.75 0.1875,-1.2421875 0.375,-1.453125 0.351563,-0.4101562 0.761719,-0.3984375 1.019531,-0.3984375 v -1.1835937 c -1.042968,-0.058594 -1.382812,0.9492187 -1.5,1.3007812 v -1.171875 h -0.984375 z m 6.47168,-1.558593775 c -0.105469,0.2695313 -0.316406,0.79687503 -1.101562,0.79687503 -0.386719,0 -0.703125,-0.140625 -0.902344,-0.44531253 -0.28125,-0.3867187 -0.269531,-0.7734375 -0.257813,-1.1015625 h 3.339844 c 0.03516,-1.4179687 -0.609375,-2.671875 -2.191406,-2.671875 -1.441406,0 -2.296875,1.1132813 -2.296875,2.5546875 0,1.2304688 0.632812,2.51953128 2.238281,2.51953128 0.960938,0 1.816406,-0.43359375 2.167969,-1.51171878 z M 49.26102,-3.0236531 c 0.02344,-0.2578125 0.05859,-0.4570313 0.222657,-0.7148438 0.210937,-0.3164062 0.503906,-0.46875 0.878906,-0.46875 0.375,0 0.65625,0.1640625 0.855469,0.421875 0.210937,0.2929688 0.222656,0.515625 0.234375,0.7617188 z m 5.545899,3.023437475 V -6.6095906 H 53.717075 V -2.15625e-4 Z M 60.273716,-3.1877156 c 0,-0.609375 0,-0.9960938 -0.515625,-1.4414063 -0.328125,-0.28125 -0.949219,-0.3515625 -1.476563,-0.3515625 -0.996094,0 -2.027344,0.2929688 -2.214844,1.3945313 l 0.949219,0.140625 c 0.04687,-0.2226563 0.164063,-0.75 1.136719,-0.75 0.492187,0 1.03125,0.1289062 1.03125,0.75 v 0.3632812 c -1.042969,-0.011719 -3.257813,0.035156 -3.257813,1.6757813 0,0.79687498 0.5625,1.49999998 1.605469,1.49999998 1.171875,0 1.511719,-0.73828125 1.652344,-1.08984375 0.03516,0.3984375 0.05859,0.59765625 0.1875,0.996093745 h 1.042969 C 60.367466,-0.16427812 60.273716,-0.52755937 60.273716,-0.99630937 Z m -1.089844,1.1484375 c 0,0.3867187 -0.1875,1.30078123 -1.277344,1.30078123 -0.773437,0 -0.855469,-0.55078123 -0.855469,-0.72656253 0,-0.6210937 0.585938,-0.796875 0.796875,-0.8671875 0.222657,-0.058594 0.644532,-0.1523437 1.335938,-0.1523437 z m 2.504883,2.039062475 h 1.089843 V -2.2853719 c 0,-1.6757812 0.84375,-1.734375 1.089844,-1.734375 0.1875,0 0.75,0.023438 0.75,1.1484375 v 2.871093775 h 1.101563 V -2.8947469 c 0,-0.6445312 0.02344,-2.0859375 -1.558594,-2.0859375 -0.914063,0 -1.289063,0.8203125 -1.476563,1.2304688 v -1.1367188 h -0.996093 z m 9.451172,0 V -6.6095906 h -1.101563 v 2.390625 c -0.316406,-0.703125 -0.820312,-0.8554688 -1.300781,-0.8554688 -1.5,0 -1.910156,1.6171875 -1.910156,2.5664063 0,0.5273437 0.140625,2.60156248 1.851562,2.60156248 0.972656,0 1.289063,-0.75 1.429688,-1.078125 V -2.15625e-4 Z M 70.038364,-2.0509969 c 0,0.7851563 -0.527344,1.25390628 -1.042969,1.25390628 -0.984375,0 -1.007812,-1.30078128 -1.007812,-1.64062498 0,-0.4101563 0.05859,-1.6992188 1.042969,-1.6992188 0.269531,0 0.585937,0.1289063 0.75,0.3632813 0.199218,0.28125 0.257812,0.46875 0.257812,0.890625 z m 0,0"
         style="fill:#ffffff;fill-opacity:1;fill-rule:nonzero;stroke:none"
         aria-label="Northern Ireland "
         transform="matrix(1.3333333,0,0,1.3333333,168.43973,197.4456)" />
    </g>
    <g
       id="g3"
       style="fill:#ffffff">
      <path
         id="path3"
         d="m 0.03641094,-1.5931047 c 0.10546875,0.3046875 0.22265625,0.71484376 0.66796875,1.06640626 0.53906251,0.43359375 1.24218751,0.62109375 2.02734371,0.62109375 1.5117188,0 2.625,-0.76171875 2.625,-2.06250001 0,-1.4179687 -1.1484375,-1.734375 -1.7109375,-1.8867187 l -1.125,-0.2695313 c -0.328125,-0.09375 -0.9140625,-0.28125 -0.9140625,-0.796875 0,-0.3398437 0.2226563,-0.8203125 1.1367188,-0.8203125 0.9375,0 1.1367187,0.5273438 1.21875,0.75 l 1.125,-0.28125 C 5.0285984,-5.4954484 4.9348484,-5.8118547 4.5364109,-6.1282609 4.0207859,-6.5384172 3.3762547,-6.7024797 2.7200047,-6.7024797 c -1.3242188,0 -2.33203126,0.7265625 -2.33203126,1.96875 0,0.84375 0.46875,1.5117188 1.42968746,1.7578125 l 1.4765625,0.3867188 c 0.2929688,0.070312 0.8085938,0.234375 0.8085938,0.8554687 0,0.2929688 -0.2226563,0.86718751 -1.3242188,0.86718751 -0.2109375,0 -0.4921875,-0.0117188 -0.8203125,-0.12890625 C 1.3723484,-1.1829484 1.2434422,-1.6048234 1.1848484,-1.8391984 Z m 8.64550786,0.72656251 c -0.1171875,0.0117188 -0.1875,0.0117188 -0.28125,0.0117188 -0.5625,0 -0.796875,-0.1171875 -0.796875,-0.78515621 v -2.3789062 h 0.984375 V -4.8860734 H 7.6037938 V -6.2337297 L 6.70145,-6.1516984 6.6077,-4.8860734 H 5.9280125 v 0.8671875 h 0.609375 v 2.5195312 c 0,0.56250001 0.035156,0.87890626 0.328125,1.20703126 0.2226563,0.2578125 0.6796875,0.38671875 1.0429688,0.38671875 0.2109375,0 0.5273437,-0.03515625 0.7734375,-0.0937499975 z M 13.741489,-3.1868547 c 0,-0.609375 0,-0.9960937 -0.515625,-1.4414062 -0.328125,-0.28125 -0.949219,-0.3515625 -1.476562,-0.3515625 -0.996094,0 -2.0273442,0.2929687 -2.2148442,1.3945312 l 0.9492192,0.140625 c 0.04687,-0.2226562 0.164062,-0.75 1.136718,-0.75 0.492188,0 1.03125,0.1289063 1.03125,0.75 v 0.3632813 c -1.042968,-0.011719 -3.2578122,0.035156 -3.2578122,1.6757812 0,0.79687501 0.5625,1.50000001 1.6054692,1.50000001 1.171875,0 1.511718,-0.73828125 1.652343,-1.08984375 0.03516,0.3984375 0.05859,0.59765625 0.1875,0.9960937525 h 1.042969 C 13.835239,-0.16341719 13.741489,-0.52669844 13.741489,-0.99544844 Z m -1.089844,1.1484375 c 0,0.3867188 -0.1875,1.30078126 -1.277343,1.30078126 -0.773438,0 -0.855469,-0.55078126 -0.855469,-0.72656246 0,-0.6210938 0.585937,-0.796875 0.796875,-0.8671875 0.222656,-0.058594 0.644531,-0.1523438 1.335937,-0.1523438 z m 4.766602,1.17187501 c -0.117188,0.0117188 -0.1875,0.0117188 -0.28125,0.0117188 -0.5625,0 -0.796875,-0.1171875 -0.796875,-0.78515631 v -2.3789061 h 0.984375 v -0.8671875 h -0.984375 v -1.3476563 l -0.902344,0.082031 -0.09375,1.265625 h -0.679687 v 0.8671875 h 0.609375 v 2.5195311 c 0,0.56250006 0.03516,0.87890631 0.328125,1.20703131 0.222656,0.2578125 0.679687,0.38671875 1.042968,0.38671875 0.210938,0 0.527344,-0.03515625 0.773438,-0.0937499975 z M 19.533481,6.453125e-4 V -4.8860734 H 18.443638 V 6.453125e-4 Z m 0,-5.4609375125 v -1.1484375 h -1.089843 v 1.1484375 z m 0.826172,4.3476563 c 0.199219,0.71484371 0.925781,1.20703121 2.085938,1.20703121 0.667968,0 2.121093,-0.234375 2.121093,-1.59375001 0,-0.7617187 -0.433593,-1.2421875 -1.230468,-1.40625 l -1.042969,-0.2109375 c -0.398438,-0.082031 -0.714844,-0.234375 -0.714844,-0.5273437 0,-0.328125 0.28125,-0.5507813 0.878906,-0.5507813 0.703125,0 0.832032,0.3867188 0.878907,0.5390625 l 0.984375,-0.1992187 c -0.304688,-1.0078125 -1.3125,-1.125 -1.886719,-1.125 -1.59375,0 -1.875,1.03125 -1.875,1.5585937 0,1.125 1.019531,1.3476563 1.488281,1.4296875 l 0.890625,0.1757813 c 0.199219,0.046875 0.527344,0.1875 0.527344,0.4921875 0,0.58593746 -0.785156,0.59765621 -1.019531,0.59765621 -0.773438,0 -0.949219,-0.36328121 -1.042969,-0.58593751 z m 7.464844,0.24609371 c -0.117188,0.0117188 -0.1875,0.0117188 -0.28125,0.0117188 -0.5625,0 -0.796875,-0.1171875 -0.796875,-0.78515631 v -2.3789061 h 0.984375 v -0.8671875 h -0.984375 v -1.3476563 l -0.902344,0.082031 -0.09375,1.265625 h -0.679687 v 0.8671875 h 0.609375 v 2.5195311 c 0,0.56250006 0.03516,0.87890631 0.328125,1.20703131 0.222656,0.2578125 0.679687,0.38671875 1.042968,0.38671875 0.210938,0 0.527344,-0.03515625 0.773438,-0.0937499975 z M 29.939731,6.453125e-4 V -4.8860734 H 28.849888 V 6.453125e-4 Z m 0,-5.4609375125 v -1.1484375 h -1.089843 v 1.1484375 z m 4.248047,3.6679688 c -0.140625,0.5507812 -0.445312,0.92578121 -0.960937,0.92578121 -1.007813,0 -1.007813,-1.33593751 -1.007813,-1.52343751 0,-0.234375 0.03516,-0.5976562 0.140625,-0.9257812 0.09375,-0.2695313 0.292969,-0.7617188 0.925781,-0.7617188 0.457032,0 0.808594,0.2695313 0.902344,0.9140625 l 0.949219,-0.1289062 c -0.07031,-0.3867188 -0.304688,-1.6875 -1.910156,-1.6875 -1.429688,0 -2.167969,1.1953125 -2.167969,2.53125 0,1.1132812 0.515625,2.54296871 2.074219,2.54296871 1.582031,0 1.898437,-1.33593751 2.003906,-1.78125001 z m 1.291992,0.6796875 c 0.199219,0.71484371 0.925782,1.20703121 2.085938,1.20703121 0.667969,0 2.121094,-0.234375 2.121094,-1.59375001 0,-0.7617187 -0.433594,-1.2421875 -1.230469,-1.40625 l -1.042969,-0.2109375 c -0.398437,-0.082031 -0.714844,-0.234375 -0.714844,-0.5273437 0,-0.328125 0.28125,-0.5507813 0.878907,-0.5507813 0.703125,0 0.832031,0.3867188 0.878906,0.5390625 l 0.984375,-0.1992187 c -0.304688,-1.0078125 -1.3125,-1.125 -1.886719,-1.125 -1.59375,0 -1.875,1.03125 -1.875,1.5585937 0,1.125 1.019531,1.3476563 1.488281,1.4296875 l 0.890625,0.1757813 c 0.199219,0.046875 0.527344,0.1875 0.527344,0.4921875 0,0.58593746 -0.785156,0.59765621 -1.019531,0.59765621 -0.773438,0 -0.949219,-0.36328121 -1.042969,-0.58593751 z m 12.208008,-2.0742188 c 0,-0.609375 0,-0.9960937 -0.515625,-1.4414062 -0.328125,-0.28125 -0.949219,-0.3515625 -1.476562,-0.3515625 -0.996094,0 -2.027344,0.2929687 -2.214844,1.3945312 l 0.949219,0.140625 c 0.04687,-0.2226562 0.164062,-0.75 1.136718,-0.75 0.492188,0 1.03125,0.1289063 1.03125,0.75 v 0.3632813 c -1.042968,-0.011719 -3.257812,0.035156 -3.257812,1.6757812 0,0.79687501 0.5625,1.50000001 1.605469,1.50000001 1.171875,0 1.511718,-0.73828125 1.652343,-1.08984375 0.03516,0.3984375 0.05859,0.59765625 0.1875,0.9960937525 h 1.042969 C 47.781528,-0.16341719 47.687778,-0.52669844 47.687778,-0.99544844 Z m -1.089844,1.1484375 c 0,0.3867188 -0.1875,1.30078126 -1.277343,1.30078126 -0.773438,0 -0.855469,-0.55078126 -0.855469,-0.72656246 0,-0.6210938 0.585937,-0.796875 0.796875,-0.8671875 0.222656,-0.058594 0.644531,-0.1523438 1.335937,-0.1523438 z m 2.504883,2.0390625125 h 1.089844 V -2.2845109 c 0,-1.6757813 0.84375,-1.734375 1.089844,-1.734375 0.1875,0 0.75,0.023437 0.75,1.1484375 V 6.453125e-4 h 1.101562 V -2.8938859 c 0,-0.6445313 0.02344,-2.0859375 -1.558594,-2.0859375 -0.914062,0 -1.289062,0.8203125 -1.476562,1.2304687 v -1.1367187 h -0.996094 z m 9.451172,0 V -6.6087297 h -1.101562 v 2.390625 c -0.316407,-0.703125 -0.820313,-0.8554687 -1.300782,-0.8554687 -1.5,0 -1.910156,1.6171875 -1.910156,2.5664062 0,0.5273438 0.140625,2.60156251 1.851563,2.60156251 0.972656,0 1.289062,-0.75 1.429687,-1.078125 V 6.453125e-4 Z M 57.452427,-2.0501359 c 0,0.7851562 -0.527344,1.25390621 -1.042969,1.25390621 -0.984375,0 -1.007813,-1.30078121 -1.007813,-1.64062501 0,-0.4101562 0.05859,-1.6992187 1.042969,-1.6992187 0.269531,0 0.585938,0.1289062 0.75,0.3632812 0.199219,0.28125 0.257813,0.46875 0.257813,0.890625 z M 68.157505,6.453125e-4 66.997348,-2.9056047 c 0.339844,-0.1523437 1.195313,-0.515625 1.195313,-1.7578125 0,-0.6679687 -0.257813,-1.1132812 -0.597656,-1.4296875 -0.410157,-0.3515625 -0.902344,-0.515625 -1.722657,-0.515625 H 63.012973 V 6.453125e-4 h 1.183594 V -2.7181047 h 1.675781 l 1.03125,2.7187500125 z M 64.196567,-5.6477922 h 1.582031 c 0.84375,0 1.171875,0.46875 1.171875,0.9609375 0,0.8203125 -0.679687,1.0195313 -1.265625,1.0195313 h -1.488281 z m 8.320313,4.0898438 c -0.105469,0.2695312 -0.316407,0.79687496 -1.101563,0.79687496 -0.386719,0 -0.703125,-0.140625 -0.902344,-0.44531246 -0.28125,-0.3867188 -0.269531,-0.7734375 -0.257812,-1.1015625 h 3.339844 c 0.03516,-1.4179688 -0.609375,-2.671875 -2.191407,-2.671875 -1.441406,0 -2.296875,1.1132812 -2.296875,2.5546875 0,1.2304687 0.632813,2.51953121 2.238282,2.51953121 0.960937,0 1.816406,-0.43359375 2.167968,-1.51171871 z m -2.261719,-1.4648438 c 0.02344,-0.2578125 0.05859,-0.4570312 0.222656,-0.7148437 0.210938,-0.3164063 0.503906,-0.46875 0.878906,-0.46875 0.375,0 0.65625,0.1640625 0.855469,0.421875 0.210938,0.2929687 0.222656,0.515625 0.234375,0.7617187 z m 3.84375,1.9101563 c 0.199219,0.71484371 0.925781,1.20703121 2.085937,1.20703121 0.667969,0 2.121094,-0.234375 2.121094,-1.59375001 0,-0.7617187 -0.433594,-1.2421875 -1.230469,-1.40625 l -1.042968,-0.2109375 c -0.398438,-0.082031 -0.714844,-0.234375 -0.714844,-0.5273437 0,-0.328125 0.28125,-0.5507813 0.878906,-0.5507813 0.703125,0 0.832031,0.3867188 0.878906,0.5390625 l 0.984375,-0.1992187 c -0.304687,-1.0078125 -1.3125,-1.125 -1.886718,-1.125 -1.59375,0 -1.875,1.03125 -1.875,1.5585937 0,1.125 1.019531,1.3476563 1.488281,1.4296875 l 0.890625,0.1757813 c 0.199219,0.046875 0.527344,0.1875 0.527344,0.4921875 0,0.58593746 -0.785157,0.59765621 -1.019532,0.59765621 -0.773437,0 -0.949218,-0.36328121 -1.042968,-0.58593751 z m 8.299805,-0.4453125 c -0.105469,0.2695312 -0.316407,0.79687496 -1.101563,0.79687496 -0.386719,0 -0.703125,-0.140625 -0.902344,-0.44531246 -0.28125,-0.3867188 -0.269531,-0.7734375 -0.257812,-1.1015625 h 3.339844 c 0.03516,-1.4179688 -0.609375,-2.671875 -2.191407,-2.671875 -1.441406,0 -2.296875,1.1132812 -2.296875,2.5546875 0,1.2304687 0.632813,2.51953121 2.238282,2.51953121 0.960937,0 1.816406,-0.43359375 2.167968,-1.51171871 z m -2.261719,-1.4648438 c 0.02344,-0.2578125 0.05859,-0.4570312 0.222656,-0.7148437 0.210938,-0.3164063 0.503906,-0.46875 0.878906,-0.46875 0.375,0 0.65625,0.1640625 0.855469,0.421875 0.210938,0.2929687 0.222656,0.515625 0.234375,0.7617187 z m 8.487305,-0.1640625 c 0,-0.609375 0,-0.9960937 -0.515625,-1.4414062 -0.328125,-0.28125 -0.949219,-0.3515625 -1.476563,-0.3515625 -0.996094,0 -2.027344,0.2929687 -2.214844,1.3945312 l 0.949219,0.140625 c 0.04687,-0.2226562 0.164063,-0.75 1.136719,-0.75 0.492187,0 1.03125,0.1289063 1.03125,0.75 v 0.3632813 c -1.042969,-0.011719 -3.257813,0.035156 -3.257813,1.6757812 0,0.79687501 0.5625,1.50000001 1.605469,1.50000001 1.171875,0 1.511719,-0.73828125 1.652344,-1.08984375 0.03516,0.3984375 0.05859,0.59765625 0.1875,0.9960937525 h 1.042969 C 88.718052,-0.16341719 88.624302,-0.52669844 88.624302,-0.99544844 Z m -1.089844,1.1484375 c 0,0.3867188 -0.1875,1.30078126 -1.277344,1.30078126 -0.773437,0 -0.855469,-0.55078126 -0.855469,-0.72656246 0,-0.6210938 0.585938,-0.796875 0.796875,-0.8671875 0.222657,-0.058594 0.644532,-0.1523438 1.335938,-0.1523438 z m 2.504883,2.0390625125 h 1.089843 V -1.9798234 c 0,-0.75 0.1875,-1.2421875 0.375,-1.453125 0.351563,-0.4101563 0.761719,-0.3984375 1.019532,-0.3984375 v -1.1835938 c -1.042969,-0.058594 -1.382813,0.9492188 -1.5,1.3007813 v -1.171875 h -0.984375 z m 6.1875,-1.7929687125 c -0.140625,0.5507812 -0.445313,0.92578121 -0.960938,0.92578121 -1.007812,0 -1.007812,-1.33593751 -1.007812,-1.52343751 0,-0.234375 0.03516,-0.5976562 0.140625,-0.9257812 0.09375,-0.2695313 0.292968,-0.7617188 0.925781,-0.7617188 0.457031,0 0.808594,0.2695313 0.902344,0.9140625 l 0.949218,-0.1289062 c -0.07031,-0.3867188 -0.304687,-1.6875 -1.910156,-1.6875 -1.429687,0 -2.167969,1.1953125 -2.167969,2.53125 0,1.1132812 0.515625,2.54296871 2.074219,2.54296871 1.582031,0 1.898438,-1.33593751 2.003906,-1.78125001 z m 1.901367,1.7929687125 h 1.089844 V -2.3313859 c 0,-0.5742188 0.05859,-0.9023438 0.210937,-1.265625 0.140625,-0.2929688 0.515625,-0.5273438 0.902341,-0.5273438 0.73828,0 0.73828,0.7382813 0.73828,1.1484375 V 6.453125e-4 h 1.08985 V -3.1516984 c 0,-1.3476563 -0.44531,-1.921875 -1.5,-1.921875 -0.996096,0 -1.312502,0.7617187 -1.441408,1.0546875 V -6.6087297 H 98.128208 Z M 109.57743,-6.6087297 h -1.45313 l -2.1914,6.6093750125 h 1.01953 L 107.46805,-1.5696672 h 2.53125 l 0.52735,1.5703125125 h 1.27734 z m -1.81641,4.0898438 0.96094,-2.953125 0.96094,2.953125 z m 9.32813,-3.2929688 h -0.33985 c -0.30469,0 -0.58594,0.058594 -0.79687,0.2109375 -0.22266,0.140625 -0.375,0.375 -0.44532,0.7148438 -0.28125,-0.046875 -0.51562,-0.09375 -0.94921,-0.09375 -1.72266,0 -2.01563,0.9726562 -2.01563,1.4765625 0,0.65625 0.42188,0.9492187 0.67969,1.1132812 -0.25781,0.140625 -0.77344,0.3984375 -0.77344,1.0195313 0,0.3632812 0.17578,0.56249996 0.44531,0.80859371 -0.35156,0.1875 -0.70312,0.3984375 -0.70312,0.984375 0,1.03124999 1.07812,1.33593749 2.36719,1.33593749 2.0625,0 2.53125,-0.98437499 2.53125,-1.60546874 0,-0.64453125 -0.48047,-1.33593746 -1.67579,-1.33593746 h -1.24218 c -0.63282,0 -0.78516,-0.3164063 -0.78516,-0.4921875 0,-0.2929688 0.1875,-0.3984375 0.33984,-0.46875 0.31641,0.070312 0.5625,0.1289062 0.90235,0.1289062 1.18359,0 1.98047,-0.6328125 1.98047,-1.5117187 0,-0.5273438 -0.31641,-0.8320313 -0.57422,-1.0429688 0.16406,-0.2929687 0.35156,-0.3984375 0.71484,-0.3984375 h 0.33985 z m -1.60547,2.296875 c 0,0.2578125 -0.0117,0.4804688 -0.29297,0.6679688 -0.14063,0.1054687 -0.375,0.1757812 -0.60938,0.1757812 -0.60937,0 -0.90234,-0.375 -0.90234,-0.8085937 0,-0.328125 0.21094,-0.8085938 0.92578,-0.8085938 0.70313,0 0.87891,0.4804688 0.87891,0.7734375 z m -2.34375,3.67968751 c 0,-0.15234375 0.0703,-0.26953125 0.23437,-0.43359375 0.31641,0.10546875 0.82031,0.1171875 1.1836,0.1171875 h 0.77343 c 0.35157,0 0.72657,0.1523437525 0.72657,0.50390625 0,0.57421875 -0.78516,0.64453125 -1.26563,0.64453125 -0.25781,0 -0.58594,-0.0117188 -0.92578,-0.10546875 -0.41016,-0.09375 -0.72656,-0.421875 -0.72656,-0.7265625 z m 7.81933,-1.72265621 c -0.10547,0.2695312 -0.3164,0.79687496 -1.10156,0.79687496 -0.38672,0 -0.70312,-0.140625 -0.90234,-0.44531246 -0.28125,-0.3867188 -0.26953,-0.7734375 -0.25782,-1.1015625 h 3.33985 c 0.0352,-1.4179688 -0.60938,-2.671875 -2.19141,-2.671875 -1.4414,0 -2.29687,1.1132812 -2.29687,2.5546875 0,1.2304687 0.63281,2.51953121 2.23828,2.51953121 0.96094,0 1.8164,-0.43359375 2.16797,-1.51171871 z m -2.26172,-1.4648438 c 0.0234,-0.2578125 0.0586,-0.4570312 0.22266,-0.7148437 0.21094,-0.3164063 0.50391,-0.46875 0.87891,-0.46875 0.375,0 0.65625,0.1640625 0.85547,0.421875 0.21093,0.2929687 0.22265,0.515625 0.23437,0.7617187 z m 4.45606,3.0234375125 h 1.08984 V -2.2845109 c 0,-1.6757813 0.84375,-1.734375 1.08985,-1.734375 0.1875,0 0.75,0.023437 0.75,1.1484375 V 6.453125e-4 h 1.10156 V -2.8938859 c 0,-0.6445313 0.0234,-2.0859375 -1.5586,-2.0859375 -0.91406,0 -1.28906,0.8203125 -1.47656,1.2304687 V -4.8860734 H 123.1536 Z M 131.42118,-1.7923234 c -0.14063,0.5507812 -0.44532,0.92578121 -0.96094,0.92578121 -1.00781,0 -1.00781,-1.33593751 -1.00781,-1.52343751 0,-0.234375 0.0352,-0.5976562 0.14062,-0.9257812 0.0937,-0.2695313 0.29297,-0.7617188 0.92578,-0.7617188 0.45703,0 0.8086,0.2695313 0.90235,0.9140625 l 0.94922,-0.1289062 c -0.0703,-0.3867188 -0.30469,-1.6875 -1.91016,-1.6875 -1.42969,0 -2.16797,1.1953125 -2.16797,2.53125 0,1.1132812 0.51563,2.54296871 2.07422,2.54296871 1.58203,0 1.89844,-1.33593751 2.00391,-1.78125001 z m 5.5459,-3.09375 h -0.89063 l -1.01953,3.234375 -1.18359,-3.234375 h -1.14844 l 1.67578,4.59374996 c 0.0117,0.046875 0.0937,0.26953125 0.0937,0.3046875 0,0.10546875 -0.15234,0.57421875 -0.30469,0.703125 -0.21094,0.1640625 -0.46875,0.15234375 -1.08984,0.140625 V 1.7233016 c 0.35156,0.035156 0.5625,0.035156 0.63281,0.035156 0.44531,0 0.99609,-0.1171875 1.32422,-1.07812499 z m 0,0"
         style="fill:#ffffff;fill-opacity:1;fill-rule:nonzero;stroke:none"
         aria-label="Statistics and Research Agency"
         transform="matrix(1.3333333,0,0,1.3333333,168.43973,210.55773)" />
    </g>
    <g
       id="g4"
       style="fill:#ffffff">
      <path
         id="path4"
         d="m 5.7317234,-3.3742031 h -2.484375 v 0.9609375 h 1.3710938 c 0.011719,0.9726562 -0.6445313,1.53515623 -1.40625,1.53515623 -1.3125,0 -1.5820313,-1.32421873 -1.5820313,-2.50781253 0,-1.0546875 0.2578125,-1.4882812 0.46875,-1.78125 0.1875,-0.2578125 0.5625,-0.5507812 1.125,-0.5507812 1.0898438,0 1.3242188,0.9375 1.3945313,1.21875 l 1.03125,-0.1875 c -0.070312,-0.3046875 -0.1640625,-0.7148438 -0.5625,-1.171875 -0.5859375,-0.6914063 -1.2890625,-0.84375 -1.8867188,-0.84375 -2.1328125,0 -2.82421871,1.96875 -2.82421871,3.3984375 0,0.7617187 0.2578125,3.39843748 2.68359371,3.39843748 0.6679688,0 1.2890625,-0.1875 1.78125,-0.984375 L 5.2043797,7.96875e-4 H 5.7317234 Z M 7.123325,7.96875e-4 H 8.2131688 V -2.2843594 c 0,-1.6757812 0.84375,-1.734375 1.0898437,-1.734375 0.1875,0 0.7500005,0.023437 0.7500005,1.1484375 V 7.96875e-4 h 1.101562 V -2.8937344 c 0,-0.6445312 0.02344,-2.0859375 -1.5585937,-2.0859375 -0.9140625,0 -1.2890625,0.8203125 -1.4765625,1.2304688 V -4.8859219 H 7.123325 Z m 6.547852,0 V -4.8859219 H 12.581333 V 7.96875e-4 Z m 0.550781,-7.183593775 -1.898438,1.0546875 0.199219,0.515625 2.027344,-0.8554687 z m 5.103515,4.7226563 c 0,-1.3242188 -0.761718,-2.5195313 -2.238281,-2.5195313 -1.488281,0 -2.296875,1.1835938 -2.296875,2.5195313 0,1.1132812 0.585938,2.55468748 2.226563,2.55468748 1.242187,0 2.308593,-0.890625 2.308593,-2.55468748 z m -1.160156,0 c 0,0.5039062 -0.09375,1.66406248 -1.113281,1.66406248 -1.101563,0 -1.101563,-1.40624998 -1.101563,-1.65234378 0,-0.7617187 0.234375,-1.6289062 1.125,-1.6289062 0.832032,0 1.089844,0.7734375 1.089844,1.6171875 z m 2.267578,2.460937475 h 1.160157 V -2.3781094 c 0,-1.21875 0.574218,-1.6171875 1.113281,-1.6171875 0.679687,0 0.796875,0.5742188 0.796875,0.9609375 V 7.96875e-4 h 1.160156 V -2.5538906 c 0,-1.0664063 0.527344,-1.4296875 1.078125,-1.4296875 0.714844,0 0.832031,0.5039062 0.832031,1.1132812 V 7.96875e-4 h 1.160157 V -3.1632656 c 0,-1.0664063 -0.503907,-1.8164063 -1.570313,-1.8164063 -0.855469,0 -1.347656,0.609375 -1.628906,1.1367188 -0.09375,-0.3046875 -0.339844,-1.1367188 -1.40625,-1.1367188 -1.042969,0 -1.40625,0.7265625 -1.617188,1.1367188 v -1.0429688 h -1.078125 z m 8.72461,0 h 1.089843 V -2.3312344 c 0,-0.5742187 0.05859,-0.9023437 0.210938,-1.265625 0.140625,-0.2929687 0.515625,-0.5273437 0.902344,-0.5273437 0.738281,0 0.738281,0.7382812 0.738281,1.1484375 V 7.96875e-4 h 1.089844 V -3.1515469 c 0,-1.3476562 -0.445313,-1.921875 -1.5,-1.921875 -0.996094,0 -1.3125,0.7617188 -1.441407,1.0546875 V -6.6085781 H 29.157505 Z M 38.655552,-3.1867031 c 0,-0.609375 0,-0.9960938 -0.515625,-1.4414063 -0.328125,-0.28125 -0.949219,-0.3515625 -1.476563,-0.3515625 -0.996094,0 -2.027344,0.2929688 -2.214844,1.3945313 l 0.949219,0.140625 c 0.04687,-0.2226563 0.164063,-0.75 1.136719,-0.75 0.492187,0 1.03125,0.1289062 1.03125,0.75 v 0.3632812 c -1.042969,-0.011719 -3.257813,0.035156 -3.257813,1.6757813 0,0.79687498 0.5625,1.49999998 1.605469,1.49999998 1.171875,0 1.511719,-0.73828125 1.652344,-1.08984375 0.03516,0.3984375 0.05859,0.59765625 0.1875,0.996093745 h 1.042969 C 38.749302,-0.16326562 38.655552,-0.52654687 38.655552,-0.99529687 Z m -1.089844,1.1484375 c 0,0.3867187 -0.1875,1.30078123 -1.277344,1.30078123 -0.773437,0 -0.855469,-0.55078123 -0.855469,-0.72656253 0,-0.6210937 0.585938,-0.796875 0.796875,-0.8671875 0.222657,-0.058594 0.644532,-0.1523437 1.335938,-0.1523437 z M 41.160434,7.96875e-4 V -4.8859219 H 40.070591 V 7.96875e-4 Z m 0,-5.460937475 v -1.1484375 h -1.089843 v 1.1484375 z m 1.435547,5.460937475 h 1.089844 V -1.9796719 c 0,-0.75 0.1875,-1.2421875 0.375,-1.453125 0.351563,-0.4101562 0.761719,-0.3984375 1.019531,-0.3984375 v -1.1835937 c -1.042968,-0.058594 -1.382812,0.9492187 -1.5,1.3007812 v -1.171875 h -0.984375 z m 6.46875,-1.558593775 c -0.105468,0.2695313 -0.316406,0.79687503 -1.101562,0.79687503 -0.386719,0 -0.703125,-0.140625 -0.902344,-0.44531253 -0.28125,-0.3867187 -0.269531,-0.7734375 -0.257812,-1.1015625 h 3.339843 c 0.03516,-1.4179687 -0.609375,-2.671875 -2.191406,-2.671875 -1.441406,0 -2.296875,1.1132813 -2.296875,2.5546875 0,1.2304688 0.632813,2.51953128 2.238281,2.51953128 0.960938,0 1.816407,-0.43359375 2.167969,-1.51171878 z m -2.261718,-1.4648437 c 0.02344,-0.2578125 0.05859,-0.4570313 0.222656,-0.7148438 0.210937,-0.3164062 0.503906,-0.46875 0.878906,-0.46875 0.375,0 0.65625,0.1640625 0.855469,0.421875 0.210937,0.2929688 0.222656,0.515625 0.234375,0.7617188 z m 8.487304,-0.1640625 c 0,-0.609375 0,-0.9960938 -0.515625,-1.4414063 -0.328125,-0.28125 -0.949219,-0.3515625 -1.476562,-0.3515625 -0.996094,0 -2.027344,0.2929688 -2.214844,1.3945313 l 0.949219,0.140625 c 0.04687,-0.2226563 0.164062,-0.75 1.136718,-0.75 0.492188,0 1.03125,0.1289062 1.03125,0.75 v 0.3632812 c -1.042968,-0.011719 -3.257812,0.035156 -3.257812,1.6757813 0,0.79687498 0.5625,1.49999998 1.605469,1.49999998 1.171875,0 1.511718,-0.73828125 1.652343,-1.08984375 0.03516,0.3984375 0.05859,0.59765625 0.1875,0.996093745 h 1.042969 C 55.384067,-0.16326562 55.290317,-0.52654687 55.290317,-0.99529687 Z m -1.089844,1.1484375 c 0,0.3867187 -0.1875,1.30078123 -1.277343,1.30078123 -0.773438,0 -0.855469,-0.55078123 -0.855469,-0.72656253 0,-0.6210937 0.585937,-0.796875 0.796875,-0.8671875 0.222656,-0.058594 0.644531,-0.1523437 1.335937,-0.1523437 z m 5.317383,0.2460937 c -0.140625,0.5507813 -0.445312,0.92578128 -0.960937,0.92578128 -1.007813,0 -1.007813,-1.33593748 -1.007813,-1.52343748 0,-0.234375 0.03516,-0.5976563 0.140625,-0.9257813 0.09375,-0.2695312 0.292969,-0.7617187 0.925782,-0.7617187 0.457031,0 0.808593,0.2695312 0.902343,0.9140625 l 0.949219,-0.1289063 c -0.07031,-0.3867187 -0.304687,-1.6875 -1.910156,-1.6875 -1.429688,0 -2.167969,1.1953125 -2.167969,2.53125 0,1.1132813 0.515625,2.54296878 2.074219,2.54296878 1.582031,0 1.898437,-1.33593748 2.003906,-1.78124998 z m 1.901367,1.792968775 h 1.089844 V -2.3312344 c 0,-0.5742187 0.05859,-0.9023437 0.210938,-1.265625 0.140625,-0.2929687 0.515625,-0.5273437 0.902343,-0.5273437 0.738282,0 0.738282,0.7382812 0.738282,1.1484375 V 7.96875e-4 h 1.089843 V -3.1515469 c 0,-1.3476562 -0.445312,-1.921875 -1.5,-1.921875 -0.996093,0 -1.3125,0.7617188 -1.441406,1.0546875 v -2.5898437 h -1.089844 z m 7.728516,-0.867187495 c -0.117187,0.0117188 -0.1875,0.0117188 -0.28125,0.0117188 -0.5625,0 -0.796875,-0.1171875 -0.796875,-0.78515628 v -2.3789063 h 0.984375 v -0.8671875 h -0.984375 v -1.3476562 l -0.902344,0.082031 -0.09375,1.265625 h -0.679687 v 0.8671875 h 0.609375 v 2.5195313 c 0,0.56250003 0.03516,0.87890628 0.328125,1.20703128 0.222656,0.2578125 0.679687,0.38671875 1.042969,0.38671875 0.210937,0 0.527343,-0.03515625 0.773437,-0.093750005 z M 75.51102,7.96875e-4 V -5.5890469 h 1.746094 v -1.0195312 h -4.78125 v 1.0195312 h 1.757813 V 7.96875e-4 Z m 2.516602,0 h 1.089844 V -2.3312344 c 0,-0.5742187 0.05859,-0.9023437 0.210937,-1.265625 0.140625,-0.2929687 0.515625,-0.5273437 0.902344,-0.5273437 0.738281,0 0.738281,0.7382812 0.738281,1.1484375 V 7.96875e-4 h 1.089844 V -3.1515469 c 0,-1.3476562 -0.445313,-1.921875 -1.5,-1.921875 -0.996094,0 -1.3125,0.7617188 -1.441406,1.0546875 V -6.6085781 H 78.027622 Z M 87.502231,-4.8859219 h -1.101562 v 2.3554688 c 0,0.4570312 -0.02344,0.7148437 -0.140625,1.0078125 -0.152344,0.4101562 -0.597656,0.67968748 -0.960938,0.67968748 -0.515625,0 -0.679687,-0.41015628 -0.679687,-0.93749998 v -3.1054688 h -1.125 v 3.421875 c 0,0.4453125 0.04687,0.65625003 0.246094,0.97265628 0.269531,0.43359375 0.75,0.5859375 1.195312,0.5859375 0.527344,0 0.855469,-0.2109375 1.019531,-0.3515625 0.328125,-0.26953125 0.421875,-0.5390625 0.515625,-0.79687498 V 7.96875e-4 h 1.03125 z m 5.458008,1.6992188 c 0,-0.609375 0,-0.9960938 -0.515625,-1.4414063 -0.328125,-0.28125 -0.949219,-0.3515625 -1.476562,-0.3515625 -0.996094,0 -2.027344,0.2929688 -2.214844,1.3945313 l 0.949219,0.140625 c 0.04687,-0.2226563 0.164062,-0.75 1.136718,-0.75 0.492188,0 1.03125,0.1289062 1.03125,0.75 v 0.3632812 c -1.042968,-0.011719 -3.257812,0.035156 -3.257812,1.6757813 0,0.79687498 0.5625,1.49999998 1.605469,1.49999998 1.171875,0 1.511718,-0.73828125 1.652343,-1.08984375 0.03516,0.3984375 0.05859,0.59765625 0.1875,0.996093745 h 1.042969 C 93.053989,-0.16326562 92.960239,-0.52654687 92.960239,-0.99529687 Z m -1.089844,1.1484375 c 0,0.3867187 -0.1875,1.30078123 -1.277343,1.30078123 -0.773438,0 -0.855469,-0.55078123 -0.855469,-0.72656253 0,-0.6210937 0.585937,-0.796875 0.796875,-0.8671875 0.222656,-0.058594 0.644531,-0.1523437 1.335937,-0.1523437 z M 95.465122,7.96875e-4 V -4.8859219 H 94.375278 V 7.96875e-4 Z m 0,-5.460937475 v -1.1484375 h -1.089844 v 1.1484375 z m 0.826172,4.3476562 c 0.199219,0.71484378 0.925781,1.20703128 2.085937,1.20703128 0.667969,0 2.121099,-0.234375 2.121099,-1.59374998 0,-0.7617188 -0.4336,-1.2421875 -1.230474,-1.40625 l -1.042968,-0.2109375 c -0.398438,-0.082031 -0.714844,-0.234375 -0.714844,-0.5273438 0,-0.328125 0.28125,-0.5507812 0.878906,-0.5507812 0.703125,0 0.832031,0.3867187 0.878906,0.5390625 l 0.984374,-0.1992188 c -0.304686,-1.0078125 -1.312499,-1.125 -1.886717,-1.125 -1.59375,0 -1.875,1.03125 -1.875,1.5585938 0,1.125 1.019531,1.3476562 1.488281,1.4296875 l 0.890625,0.1757812 c 0.199219,0.046875 0.527344,0.1875 0.527344,0.4921875 0,0.58593753 -0.785157,0.59765628 -1.019532,0.59765628 -0.773437,0 -0.949218,-0.36328128 -1.042968,-0.58593748 z m 8.018556,-0.6796875 c -0.14063,0.5507813 -0.44531,0.92578128 -0.96094,0.92578128 -1.00781,0 -1.00781,-1.33593748 -1.00781,-1.52343748 0,-0.234375 0.0352,-0.5976563 0.14062,-0.9257813 0.0937,-0.2695312 0.29297,-0.7617187 0.92578,-0.7617187 0.45704,0 0.8086,0.2695312 0.90235,0.9140625 l 0.94922,-0.1289063 c -0.0703,-0.3867187 -0.30469,-1.6875 -1.91016,-1.6875 -1.42969,0 -2.16797,1.1953125 -2.16797,2.53125 0,1.1132813 0.51563,2.54296878 2.07422,2.54296878 1.58203,0 1.89844,-1.33593748 2.00391,-1.78124998 z m 4.99512,0.234375 c -0.10547,0.2695313 -0.31641,0.79687503 -1.10157,0.79687503 -0.38672,0 -0.70312,-0.140625 -0.90234,-0.44531253 -0.28125,-0.3867187 -0.26953,-0.7734375 -0.25781,-1.1015625 h 3.33984 c 0.0352,-1.4179687 -0.60937,-2.671875 -2.19141,-2.671875 -1.4414,0 -2.29687,1.1132813 -2.29687,2.5546875 0,1.2304688 0.63281,2.51953128 2.23828,2.51953128 0.96094,0 1.81641,-0.43359375 2.16797,-1.51171878 z m -2.26172,-1.4648437 c 0.0234,-0.2578125 0.0586,-0.4570313 0.22265,-0.7148438 0.21094,-0.3164062 0.50391,-0.46875 0.87891,-0.46875 0.375,0 0.65625,0.1640625 0.85547,0.421875 0.21094,0.2929688 0.22265,0.515625 0.23437,0.7617188 z m 8.4873,-0.1640625 c 0,-0.609375 0,-0.9960938 -0.51562,-1.4414063 -0.32813,-0.28125 -0.94922,-0.3515625 -1.47657,-0.3515625 -0.99609,0 -2.02734,0.2929688 -2.21484,1.3945313 l 0.94922,0.140625 c 0.0469,-0.2226563 0.16406,-0.75 1.13672,-0.75 0.49219,0 1.03125,0.1289062 1.03125,0.75 v 0.3632812 c -1.04297,-0.011719 -3.25781,0.035156 -3.25781,1.6757813 0,0.79687498 0.5625,1.49999998 1.60546,1.49999998 1.17188,0 1.51172,-0.73828125 1.65235,-1.08984375 0.0352,0.3984375 0.0586,0.59765625 0.1875,0.996093745 h 1.04297 c -0.0469,-0.164062495 -0.14063,-0.527343745 -0.14063,-0.996093745 z m -1.08984,1.1484375 c 0,0.3867187 -0.1875,1.30078123 -1.27735,1.30078123 -0.77343,0 -0.85546,-0.55078123 -0.85546,-0.72656253 0,-0.6210937 0.58593,-0.796875 0.79687,-0.8671875 0.22266,-0.058594 0.64453,-0.1523437 1.33594,-0.1523437 z m 2.50488,2.039062475 h 1.08984 V -1.9796719 c 0,-0.75 0.1875,-1.2421875 0.375,-1.453125 0.35157,-0.4101562 0.76172,-0.3984375 1.01954,-0.3984375 v -1.1835937 c -1.04297,-0.058594 -1.38282,0.9492187 -1.5,1.3007812 v -1.171875 h -0.98438 z m 6.13184,-0.867187495 c -0.11719,0.0117188 -0.1875,0.0117188 -0.28125,0.0117188 -0.5625,0 -0.79688,-0.1171875 -0.79688,-0.78515618 v -2.3789063 h 0.98438 V -4.8859218 H 121.9993 V -6.233578 l -0.90234,0.082031 -0.0937,1.265625 h -0.67969 v 0.8671875 h 0.60938 v 2.5195313 c 0,0.56250003 0.0352,0.87890628 0.32812,1.20703128 0.22266,0.2578125 0.67969,0.38671875 1.04297,0.38671875 0.21094,0 0.52734,-0.03515625 0.77344,-0.093750005 z m 8.34375,0.867187495 V -1.0187344 h -3.10547 v -1.8515625 h 2.46094 v -0.9609375 h -2.46094 v -1.7929687 h 3.05859 v -0.984375 h -4.24219 V 7.96875e-4 Z m -0.77344,-8.636718775 -1.96875,0.9257813 0.1875,0.515625 2.07422,-0.703125 z m 2.93262,8.636718775 V -4.8859219 h -1.08985 V 7.96875e-4 Z m 0,-5.460937475 v -1.1484375 h -1.08985 v 1.1484375 z m 1.43554,5.460937475 h 1.08985 V -1.9796719 c 0,-0.75 0.1875,-1.2421875 0.375,-1.453125 0.35156,-0.4101562 0.76172,-0.3984375 1.01953,-0.3984375 v -1.1835937 c -1.04297,-0.058594 -1.38281,0.9492187 -1.5,1.3007812 v -1.171875 h -0.98438 z m 6.47168,-1.558593775 c -0.10547,0.2695313 -0.3164,0.79687503 -1.10156,0.79687503 -0.38672,0 -0.70312,-0.140625 -0.90234,-0.44531253 -0.28125,-0.3867187 -0.26953,-0.7734375 -0.25782,-1.1015625 h 3.33985 c 0.0352,-1.4179687 -0.60938,-2.671875 -2.19141,-2.671875 -1.4414,0 -2.29687,1.1132813 -2.29687,2.5546875 0,1.2304688 0.63281,2.51953128 2.23828,2.51953128 0.96094,0 1.8164,-0.43359375 2.16797,-1.51171878 z m -2.26172,-1.4648437 c 0.0234,-0.2578125 0.0586,-0.4570313 0.22266,-0.7148438 0.21094,-0.3164062 0.50391,-0.46875 0.87891,-0.46875 0.375,0 0.65625,0.1640625 0.85547,0.421875 0.21093,0.2929688 0.22265,0.515625 0.23437,0.7617188 z m 8.48731,-0.1640625 c 0,-0.609375 0,-0.9960938 -0.51563,-1.4414063 -0.32812,-0.28125 -0.94921,-0.3515625 -1.47656,-0.3515625 -0.99609,0 -2.02734,0.2929688 -2.21484,1.3945313 l 0.94922,0.140625 c 0.0469,-0.2226563 0.16406,-0.75 1.13672,-0.75 0.49218,0 1.03125,0.1289062 1.03125,0.75 v 0.3632812 c -1.04297,-0.011719 -3.25782,0.035156 -3.25782,1.6757813 0,0.79687498 0.5625,1.49999998 1.60547,1.49999998 1.17188,0 1.51172,-0.73828125 1.65235,-1.08984375 0.0351,0.3984375 0.0586,0.59765625 0.1875,0.996093745 h 1.04296 c -0.0469,-0.164062495 -0.14062,-0.527343745 -0.14062,-0.996093745 z m -1.08984,1.1484375 c 0,0.3867187 -0.1875,1.30078123 -1.27735,1.30078123 -0.77344,0 -0.85547,-0.55078123 -0.85547,-0.72656253 0,-0.6210937 0.58594,-0.796875 0.79688,-0.8671875 0.22265,-0.058594 0.64453,-0.1523437 1.33594,-0.1523437 z m 2.50488,2.039062475 h 1.08984 V -2.2843594 c 0,-1.6757812 0.84375,-1.734375 1.08985,-1.734375 0.1875,0 0.75,0.023437 0.75,1.1484375 V 7.96875e-4 h 1.10156 V -2.8937344 c 0,-0.6445312 0.0234,-2.0859375 -1.5586,-2.0859375 -0.91406,0 -1.28906,0.8203125 -1.47656,1.2304688 v -1.1367188 h -0.99609 z m 5.45508,0 h 1.08984 V -2.2843594 c 0,-1.6757812 0.84375,-1.734375 1.08984,-1.734375 0.1875,0 0.75,0.023437 0.75,1.1484375 V 7.96875e-4 h 1.10157 V -2.8937344 c 0,-0.6445312 0.0234,-2.0859375 -1.5586,-2.0859375 -0.91406,0 -1.28906,0.8203125 -1.47656,1.2304688 v -1.1367188 h -0.99609 z m 0,0"
         style="fill:#ffffff;fill-opacity:1;fill-rule:nonzero;stroke:none"
         aria-label="Gníomhaireacht Thuaisceart Éireann"
         transform="matrix(1.3333333,0,0,1.3333333,168.43973,231.788)" />
    </g>
    <g
       id="g5"
       style="fill:#ffffff">
      <path
         id="path5"
         d="M 4.6770359,-4.8879906 H 3.5754734 v 2.3554687 c 0,0.4570313 -0.023437,0.7148438 -0.140625,1.0078125 -0.1523437,0.4101563 -0.5976562,0.67968753 -0.9609375,0.67968753 -0.515625,0 -0.6796875,-0.41015623 -0.6796875,-0.93750003 V -4.8879906 H 0.66922344 v 3.421875 c 0,0.4453125 0.046875,0.65624998 0.24609375,0.97265623 0.26953121,0.43359375 0.75000001,0.5859375 1.19531251,0.5859375 0.5273437,0 0.8554687,-0.2109375 1.0195312,-0.3515625 0.328125,-0.26953125 0.421875,-0.5390625 0.515625,-0.79687503 v 1.05468753 h 1.03125 z M 6.092075,-0.00127187 H 7.2522313 V -2.3801781 c 0,-1.21875 0.5742187,-1.6171875 1.1132812,-1.6171875 0.6796875,0 0.796875,0.5742187 0.796875,0.9609375 v 3.03515623 H 10.322544 V -2.5559594 c 0,-1.0664062 0.527344,-1.4296875 1.078125,-1.4296875 0.714844,0 0.832031,0.5039063 0.832031,1.1132813 v 2.87109373 h 1.160156 V -3.1653344 c 0,-1.0664062 -0.503906,-1.8164062 -1.570312,-1.8164062 -0.855469,0 -1.347656,0.609375 -1.628906,1.1367187 -0.09375,-0.3046875 -0.3398442,-1.1367187 -1.4062505,-1.1367187 -1.0429687,0 -1.40625,0.7265625 -1.6171875,1.1367187 V -4.8879906 H 6.092075 Z m 11.06543,-1.59375003 c 0.105468,0.3046875 0.222656,0.71484378 0.667968,1.06640628 0.539063,0.43359375 1.242188,0.62109375 2.027344,0.62109375 1.511719,0 2.625,-0.76171875 2.625,-2.06250003 0,-1.4179687 -1.148437,-1.734375 -1.710937,-1.8867187 l -1.125,-0.2695313 c -0.328125,-0.09375 -0.914063,-0.28125 -0.914063,-0.796875 0,-0.3398437 0.222656,-0.8203125 1.136719,-0.8203125 0.9375,0 1.136719,0.5273438 1.21875,0.75 l 1.125,-0.28125 c -0.05859,-0.2226562 -0.152344,-0.5390625 -0.550781,-0.8554687 -0.515625,-0.4101563 -1.160157,-0.5742188 -1.816407,-0.5742188 -1.324218,0 -2.332031,0.7265625 -2.332031,1.96875 0,0.84375 0.46875,1.5117188 1.429688,1.7578125 l 1.476562,0.3867188 c 0.292969,0.070312 0.808594,0.234375 0.808594,0.8554687 0,0.2929688 -0.222656,0.86718753 -1.324219,0.86718753 -0.210937,0 -0.492187,-0.0117188 -0.820312,-0.12890625 C 18.493442,-1.1848656 18.364536,-1.6067406 18.305942,-1.8411156 Z m 8.648437,0.72656253 c -0.117187,0.0117188 -0.1875,0.0117188 -0.28125,0.0117188 -0.5625,0 -0.796875,-0.1171875 -0.796875,-0.78515633 V -4.020803 h 0.984375 v -0.8671875 h -0.984375 v -1.3476563 l -0.902344,0.082031 -0.09375,1.265625 h -0.679687 v 0.8671875 h 0.609375 v 2.5195312 c 0,0.56249998 0.03516,0.87890623 0.328125,1.20703123 0.222656,0.2578125 0.679687,0.38671875 1.042969,0.38671875 0.210937,0 0.527343,-0.03515625 0.773437,-0.09375 z m 5.056641,-2.32031253 c 0,-0.609375 0,-0.9960937 -0.515625,-1.4414062 -0.328125,-0.28125 -0.949219,-0.3515625 -1.476563,-0.3515625 -0.996093,0 -2.027343,0.2929687 -2.214843,1.3945312 l 0.949218,0.140625 c 0.04687,-0.2226562 0.164063,-0.75 1.136719,-0.75 0.492188,0 1.03125,0.1289063 1.03125,0.75 v 0.3632813 c -1.042969,-0.011719 -3.257812,0.035156 -3.257812,1.6757812 0,0.79687503 0.5625,1.50000003 1.605468,1.50000003 1.171875,0 1.511719,-0.73828125 1.652344,-1.08984375 0.03516,0.3984375 0.05859,0.59765625 0.1875,0.99609375 h 1.042969 c -0.04687,-0.1640625 -0.140625,-0.52734375 -0.140625,-0.99609375 z m -1.089844,1.1484375 c 0,0.3867188 -0.1875,1.30078128 -1.277344,1.30078128 -0.773437,0 -0.855468,-0.55078128 -0.855468,-0.72656248 0,-0.6210938 0.585937,-0.796875 0.796875,-0.8671875 0.222656,-0.058594 0.644531,-0.1523438 1.335937,-0.1523438 z m 3.594727,2.03906253 V -4.8879906 h -1.089844 v 4.88671873 z m 0,-5.46093753 v -1.1484375 h -1.089844 v 1.1484375 z m 3.697265,4.59375003 c -0.117187,0.0117188 -0.1875,0.0117188 -0.28125,0.0117188 -0.5625,0 -0.796875,-0.1171875 -0.796875,-0.78515633 V -4.020803 h 0.984375 v -0.8671875 h -0.984375 v -1.3476563 l -0.902343,0.082031 -0.09375,1.265625 h -0.679688 v 0.8671875 H 34.9202 v 2.5195312 c 0,0.56249998 0.03516,0.87890623 0.328125,1.20703123 0.222656,0.2578125 0.679688,0.38671875 1.042969,0.38671875 0.210937,0 0.527344,-0.03515625 0.773437,-0.09375 z m 2.115235,0.8671875 V -4.8879906 h -1.089844 v 4.88671873 z m 0,-5.46093753 v -1.1484375 h -1.089844 v 1.1484375 z m 0.826172,4.3476563 c 0.199218,0.71484373 0.925781,1.20703123 2.085937,1.20703123 0.667969,0 2.121094,-0.234375 2.121094,-1.59375003 0,-0.7617187 -0.433594,-1.2421875 -1.230469,-1.40625 l -1.042969,-0.2109375 c -0.398437,-0.082031 -0.714843,-0.234375 -0.714843,-0.5273437 0,-0.328125 0.28125,-0.5507813 0.878906,-0.5507813 0.703125,0 0.832031,0.3867188 0.878906,0.5390625 l 0.984375,-0.1992187 c -0.304687,-1.0078125 -1.3125,-1.125 -1.886719,-1.125 -1.59375,0 -1.875,1.03125 -1.875,1.5585937 0,1.125 1.019532,1.3476563 1.488282,1.4296875 l 0.890625,0.1757813 c 0.199218,0.046875 0.527343,0.1875 0.527343,0.4921875 0,0.58593748 -0.785156,0.59765623 -1.019531,0.59765623 -0.773437,0 -0.949219,-0.36328123 -1.042969,-0.58593753 z m 7.464843,0.24609373 c -0.117187,0.0117188 -0.1875,0.0117188 -0.28125,0.0117188 -0.5625,0 -0.796875,-0.1171875 -0.796875,-0.78515633 V -4.020803 h 0.984375 v -0.8671875 h -0.984375 v -1.3476563 l -0.902343,0.082031 -0.09375,1.265625 h -0.679688 v 0.8671875 h 0.609375 v 2.5195312 c 0,0.56249998 0.03516,0.87890623 0.328125,1.20703123 0.222656,0.2578125 0.679688,0.38671875 1.042969,0.38671875 0.210937,0 0.527344,-0.03515625 0.773437,-0.09375 z m 2.115235,0.8671875 V -4.8879906 h -1.089844 v 4.88671873 z m 0,-5.46093753 v -1.1484375 h -1.089844 v 1.1484375 z m 4.248047,3.6679688 c -0.140625,0.5507812 -0.445313,0.92578123 -0.960938,0.92578123 -1.007812,0 -1.007812,-1.33593753 -1.007812,-1.52343753 0,-0.234375 0.03516,-0.5976562 0.140625,-0.9257812 0.09375,-0.2695313 0.292968,-0.7617188 0.925781,-0.7617188 0.457031,0 0.808594,0.2695313 0.902344,0.9140625 l 0.949218,-0.1289062 c -0.07031,-0.3867188 -0.304687,-1.6875 -1.910156,-1.6875 -1.429687,0 -2.167969,1.1953125 -2.167969,2.53125 0,1.1132812 0.515625,2.54296873 2.074219,2.54296873 1.582031,0 1.898438,-1.33593753 2.003906,-1.78125003 z m 2.99121,1.79296873 V -4.8879906 H 55.73563 v 4.88671873 z m 0.550782,-7.18359373 -1.898438,1.0546875 0.199219,0.515625 2.027344,-0.8554688 z m 7.886718,3.9960937 c 0,-0.609375 0,-0.9960937 -0.515625,-1.4414062 -0.328125,-0.28125 -0.949218,-0.3515625 -1.476562,-0.3515625 -0.996094,0 -2.027344,0.2929687 -2.214844,1.3945312 l 0.949219,0.140625 c 0.04687,-0.2226562 0.164062,-0.75 1.136719,-0.75 0.492187,0 1.03125,0.1289063 1.03125,0.75 v 0.3632813 c -1.042969,-0.011719 -3.257813,0.035156 -3.257813,1.6757812 0,0.79687503 0.5625,1.50000003 1.605469,1.50000003 1.171875,0 1.511719,-0.73828125 1.652344,-1.08984375 0.03516,0.3984375 0.05859,0.59765625 0.1875,0.99609375 h 1.042968 c -0.04687,-0.1640625 -0.140625,-0.52734375 -0.140625,-0.99609375 z m -1.089843,1.1484375 c 0,0.3867188 -0.1875,1.30078128 -1.277344,1.30078128 -0.773438,0 -0.855469,-0.55078128 -0.855469,-0.72656248 0,-0.6210938 0.585938,-0.796875 0.796875,-0.8671875 0.222656,-0.058594 0.644531,-0.1523438 1.335938,-0.1523438 z m 6.958008,-3.7734375 h -0.339844 c -0.304688,0 -0.585938,0.058594 -0.796875,0.2109375 -0.222656,0.140625 -0.375,0.375 -0.445313,0.7148438 -0.28125,-0.046875 -0.515625,-0.09375 -0.949218,-0.09375 -1.722657,0 -2.015625,0.9726562 -2.015625,1.4765625 0,0.65625 0.421875,0.9492187 0.679687,1.1132812 -0.257812,0.140625 -0.773437,0.3984375 -0.773437,1.0195313 0,0.3632812 0.175781,0.56249998 0.445312,0.80859373 -0.351562,0.1875 -0.703125,0.3984375 -0.703125,0.984375 0,1.03124997 1.078125,1.33593747 2.367188,1.33593747 2.0625,0 2.53125,-0.98437497 2.53125,-1.60546872 0,-0.64453125 -0.480469,-1.33593748 -1.675782,-1.33593748 h -1.242187 c -0.632813,0 -0.785156,-0.3164063 -0.785156,-0.4921875 0,-0.2929688 0.1875,-0.3984375 0.339843,-0.46875 0.316407,0.070312 0.5625,0.1289062 0.902344,0.1289062 1.183594,0 1.980469,-0.6328125 1.980469,-1.5117187 0,-0.5273438 -0.316406,-0.8320313 -0.574219,-1.0429688 0.164063,-0.2929687 0.351563,-0.3984375 0.714844,-0.3984375 h 0.339844 z m -1.605469,2.296875 c 0,0.2578125 -0.01172,0.4804688 -0.292969,0.6679688 -0.140625,0.1054687 -0.375,0.1757812 -0.609375,0.1757812 -0.609375,0 -0.902344,-0.375 -0.902344,-0.8085937 0,-0.328125 0.210938,-0.8085938 0.925782,-0.8085938 0.703125,0 0.878906,0.4804688 0.878906,0.7734375 z m -2.34375,3.67968753 c 0,-0.15234375 0.07031,-0.26953125 0.234375,-0.43359375 0.316406,0.10546875 0.820312,0.1171875 1.183594,0.1171875 h 0.773437 c 0.351563,0 0.726563,0.15234375 0.726563,0.50390625 0,0.57421875 -0.785157,0.64453125 -1.265625,0.64453125 -0.257813,0 -0.585938,-0.0117188 -0.925782,-0.10546875 -0.410156,-0.09375 -0.726562,-0.421875 -0.726562,-0.7265625 z m 8.733398,-5.05078123 h -1.101562 v 2.3554687 c 0,0.4570313 -0.02344,0.7148438 -0.140625,1.0078125 -0.152344,0.4101563 -0.597657,0.67968753 -0.960938,0.67968753 -0.515625,0 -0.679687,-0.41015623 -0.679687,-0.93750003 v -3.1054687 h -1.125 v 3.421875 c 0,0.4453125 0.04687,0.65624998 0.246093,0.97265623 0.269532,0.43359375 0.75,0.5859375 1.195313,0.5859375 0.527344,0 0.855469,-0.2109375 1.019531,-0.3515625 0.328125,-0.26953125 0.421875,-0.5390625 0.515625,-0.79687503 v 1.05468753 h 1.03125 z m 0.820313,3.7734375 c 0.199218,0.71484373 0.925781,1.20703123 2.085937,1.20703123 0.667969,0 2.121094,-0.234375 2.121094,-1.59375003 0,-0.7617187 -0.433594,-1.2421875 -1.230469,-1.40625 l -1.042969,-0.2109375 c -0.398437,-0.082031 -0.714843,-0.234375 -0.714843,-0.5273437 0,-0.328125 0.28125,-0.5507813 0.878906,-0.5507813 0.703125,0 0.832031,0.3867188 0.878906,0.5390625 l 0.984375,-0.1992187 c -0.304687,-1.0078125 -1.3125,-1.125 -1.886719,-1.125 -1.59375,0 -1.875,1.03125 -1.875,1.5585937 0,1.125 1.019532,1.3476563 1.488282,1.4296875 l 0.890625,0.1757813 c 0.199218,0.046875 0.527343,0.1875 0.527343,0.4921875 0,0.58593748 -0.785156,0.59765623 -1.019531,0.59765623 -0.773437,0 -0.949219,-0.36328123 -1.042969,-0.58593753 z m 10.541015,1.11328123 V -5.5911156 h 1.746094 v -1.0195313 h -4.78125 v 1.0195313 h 1.757813 v 5.58984373 z M 93.22977,-3.1887719 c 0,-0.609375 0,-0.9960937 -0.515625,-1.4414062 -0.328125,-0.28125 -0.949218,-0.3515625 -1.476562,-0.3515625 -0.996094,0 -2.027344,0.2929687 -2.214844,1.3945312 l 0.949219,0.140625 c 0.04687,-0.2226562 0.164062,-0.75 1.136719,-0.75 0.492187,0 1.03125,0.1289063 1.03125,0.75 v 0.3632813 c -1.042969,-0.011719 -3.257813,0.035156 -3.257813,1.6757812 0,0.79687503 0.5625,1.50000003 1.605469,1.50000003 1.171875,0 1.511719,-0.73828125 1.652344,-1.08984375 0.03516,0.3984375 0.05859,0.59765625 0.1875,0.99609375 h 1.042968 C 93.32352,-0.16533437 93.22977,-0.52861562 93.22977,-0.99736562 Z m -1.089843,1.1484375 c 0,0.3867188 -0.1875,1.30078128 -1.277344,1.30078128 -0.773438,0 -0.855469,-0.55078128 -0.855469,-0.72656248 0,-0.6210938 0.585938,-0.796875 0.796875,-0.8671875 0.222656,-0.058594 0.644531,-0.1523438 1.335938,-0.1523438 z m 3.594726,2.03906253 V -4.8879906 h -1.089844 v 4.88671873 z m 0,-5.46093753 v -1.1484375 h -1.089844 v 1.1484375 z m 5.888677,-0.3515625 h -0.33985 c -0.30469,0 -0.58594,0.058594 -0.79687,0.2109375 -0.22266,0.140625 -0.375,0.375 -0.44532,0.7148438 -0.281246,-0.046875 -0.515621,-0.09375 -0.949215,-0.09375 -1.722656,0 -2.015625,0.9726562 -2.015625,1.4765625 0,0.65625 0.421875,0.9492187 0.679688,1.1132812 -0.257813,0.140625 -0.773438,0.3984375 -0.773438,1.0195313 0,0.3632812 0.175781,0.56249998 0.445313,0.80859373 -0.351563,0.1875 -0.703125,0.3984375 -0.703125,0.984375 0,1.03124997 1.078125,1.33593747 2.367187,1.33593747 2.062505,0 2.531255,-0.98437497 2.531255,-1.60546872 0,-0.64453125 -0.48047,-1.33593748 -1.675786,-1.33593748 h -1.242188 c -0.632812,0 -0.785156,-0.3164063 -0.785156,-0.4921875 0,-0.2929688 0.1875,-0.3984375 0.339844,-0.46875 0.316406,0.070312 0.5625,0.1289062 0.902344,0.1289062 1.183592,0 1.980472,-0.6328125 1.980472,-1.5117187 0,-0.5273438 -0.31641,-0.8320313 -0.57422,-1.0429688 0.16406,-0.2929687 0.35156,-0.3984375 0.71484,-0.3984375 h 0.33985 z m -1.60547,2.296875 c 0,0.2578125 -0.0117,0.4804688 -0.292972,0.6679688 -0.140625,0.1054687 -0.375,0.1757812 -0.609375,0.1757812 -0.609375,0 -0.902344,-0.375 -0.902344,-0.8085937 0,-0.328125 0.210937,-0.8085938 0.925781,-0.8085938 0.703125,0 0.87891,0.4804688 0.87891,0.7734375 z m -2.343754,3.67968753 c 0,-0.15234375 0.07031,-0.26953125 0.234375,-0.43359375 0.316407,0.10546875 0.820313,0.1171875 1.183594,0.1171875 h 0.773438 c 0.351567,0 0.726567,0.15234375 0.726567,0.50390625 0,0.57421875 -0.785161,0.64453125 -1.26563,0.64453125 -0.257812,0 -0.585937,-0.0117188 -0.925781,-0.10546875 -0.410156,-0.09375 -0.726563,-0.421875 -0.726563,-0.7265625 z m 4.722654,-0.1640625 h 1.08985 V -2.3333031 c 0,-0.5742188 0.0586,-0.9023438 0.21093,-1.265625 0.14063,-0.2929688 0.51563,-0.5273438 0.90235,-0.5273438 0.73828,0 0.73828,0.7382813 0.73828,1.1484375 v 2.97656253 h 1.08984 V -3.1536156 c 0,-1.3476563 -0.44531,-1.921875 -1.5,-1.921875 -0.99609,0 -1.3125,0.7617187 -1.4414,1.0546875 v -2.5898438 h -1.08985 z m 9.46289,0 V -6.6106469 h -1.10156 v 2.390625 c -0.31641,-0.703125 -0.82031,-0.8554687 -1.30078,-0.8554687 -1.5,0 -1.91016,1.6171875 -1.91016,2.5664062 0,0.5273438 0.14063,2.60156253 1.85157,2.60156253 0.97265,0 1.28906,-0.75 1.42968,-1.078125 v 0.984375 z m -1.10156,-2.05078123 c 0,0.7851562 -0.52734,1.25390623 -1.04297,1.25390623 -0.98437,0 -1.00781,-1.30078123 -1.00781,-1.64062503 0,-0.4101562 0.0586,-1.6992187 1.04297,-1.6992187 0.26953,0 0.58594,0.1289062 0.75,0.3632812 0.19922,0.28125 0.25781,0.46875 0.25781,0.890625 z m 5.625,0.4921875 c -0.10547,0.2695312 -0.31641,0.79687498 -1.10156,0.79687498 -0.38672,0 -0.70313,-0.140625 -0.90235,-0.44531248 -0.28125,-0.3867188 -0.26953,-0.7734375 -0.25781,-1.1015625 h 3.33985 c 0.0352,-1.4179688 -0.60938,-2.671875 -2.19141,-2.671875 -1.44141,0 -2.29688,1.1132812 -2.29688,2.5546875 0,1.2304687 0.63282,2.51953123 2.23829,2.51953123 0.96093,0 1.8164,-0.43359375 2.16796,-1.51171873 z m -2.26172,-1.4648438 c 0.0234,-0.2578125 0.0586,-0.4570312 0.22266,-0.7148437 0.21094,-0.3164063 0.5039,-0.46875 0.8789,-0.46875 0.375,0 0.65625,0.1640625 0.85547,0.421875 0.21094,0.2929687 0.22266,0.515625 0.23438,0.7617187 z m 0,0"
         style="fill:#ffffff;fill-opacity:1;fill-rule:nonzero;stroke:none"
         aria-label="um Staitisticí agus Taighde"
         transform="matrix(1.3333333,0,0,1.3333333,168.43973,244.90013)" />
    </g>
    <g
       id="g6"
       style="fill:#ffffff;stroke:#ffffff;stroke-opacity:1">
      <path
         id="path6"
         d="M 0,0 H 157.023"
         style="fill:#ffffff;stroke:#ffffff;stroke-width:0.409;stroke-linecap:butt;stroke-linejoin:miter;stroke-miterlimit:4;stroke-dasharray:none;stroke-opacity:1"
         transform="matrix(1.3333333,0,0,-1.3333333,168.43973,217.13547)" />
    </g>
    <g
       id="g7"
       style="fill:#ffffff">
      <path
         id="path7"
         d="m 0,0 c 3.887,-6.733 8.74,-11.586 15.474,-15.474 6.658,-3.844 13.925,-5.67 21.097,-5.67 10.004,0 19.819,3.556 27.528,10.152 0.442,0.378 0.877,0.767 1.305,1.165 3.007,2.799 5.656,6.084 7.817,9.827 L 51.408,12.594 49.746,13.553 37.482,20.634 36.611,21.137 35.82,20.681 9.156,5.286 7.642,4.412 Z"
         style="fill:#ffffff;fill-opacity:1;fill-rule:nonzero;stroke:none"
         transform="matrix(1.3333333,0,0,-1.3333333,48.378,189.95507)"
         clip-path="url(#clipPath8)" />
      <path
         id="path9"
         d="m 0,0 0.041,0.023 v 25.969 1.662 h 1.661 c 4.473,0 8.845,-0.662 13.048,-1.97 v 8.02 C 6.976,33.704 0.346,31.927 -6.387,28.04 -22.098,18.969 -29.781,1.337 -26.951,-15.56 Z"
         style="fill:#ffffff;fill-opacity:1;fill-rule:nonzero;stroke:none"
         transform="matrix(1.3333333,0,0,-1.3333333,96.0844,159.85307)"
         clip-path="url(#clipPath10)" />
      <path
         id="path11"
         d="m 0,0 c -0.549,0.204 -1.103,0.395 -1.662,0.576 -4.11,1.333 -8.494,2.055 -13.048,2.055 v -26.015 l 13.048,-7.533 1.662,-0.96 21.86,-12.621 1.44,-0.831 -0.831,-1.439 c -2.113,-3.659 -4.735,-6.974 -7.762,-9.859 l 7.194,-4.153 c 3.887,6.733 5.664,13.362 5.664,21.137 C 27.565,-21.469 16.095,-5.975 0,0"
         style="fill:#ffffff;fill-opacity:1;fill-rule:nonzero;stroke:none"
         transform="matrix(1.3333333,0,0,-1.3333333,117.96733,128.70587)"
         clip-path="url(#clipPath12)" />
    </g>
    <g
       id="g12"
       style="fill:#ffffff">
      <path
         id="path13"
         d="M 34.592509,-39.984969 H 28.838603 V -11.7545 c -1.382812,-2.636719 -2.34375,-4.371094 -2.460937,-4.675781 L 12.350322,-39.984969 H 4.3698531 V -5.9375e-4 H 10.135478 V -29.977156 c 0.351563,0.714843 1.792969,3.773437 2.214844,4.441406 L 27.994853,-5.9375e-4 h 6.597656 z M 48.73997,-5.9375e-4 V -39.984969 H 41.544658 V -5.9375e-4 Z m 2.876953,-9.65625005 c 0.609375,1.8632813 1.324219,4.3242188 4.019532,6.4804688 3.304687,2.63671875 7.5,3.7734375 12.292968,3.7734375 9.117188,0 15.890625,-4.6171875 15.890625,-12.5273435 0,-8.578125 -6.960937,-10.488282 -10.371093,-11.390625 l -6.773438,-1.675782 c -2.039062,-0.539062 -5.578125,-1.6875 -5.578125,-4.804687 0,-2.039063 1.371094,-4.96875 6.890625,-4.96875 5.695313,0 6.890625,3.175781 7.371094,4.558594 l 6.84375,-1.746094 c -0.363281,-1.3125 -0.960938,-3.234375 -3.363281,-5.15625 -3.117188,-2.460938 -7.007813,-3.480469 -10.96875,-3.480469 -8.039063,0 -14.144532,4.382813 -14.144532,11.941406 0,5.085938 2.8125,9.164063 8.625,10.664063 l 8.941407,2.285156 c 1.792968,0.480469 4.910156,1.429688 4.910156,5.214844 0,1.7929687 -1.324219,5.2734375 -7.96875,5.2734375 -1.324219,0 -3,-0.1171875 -4.980469,-0.7851563 -3.597656,-1.1367187 -4.3125,-3.7148437 -4.675781,-5.1562502 z M 119.37474,-5.9375e-4 112.3552,-17.625594 c 2.03907,-0.902344 7.19532,-3.117187 7.19532,-10.617187 0,-4.078125 -1.5586,-6.773438 -3.59766,-8.625 -2.46094,-2.167969 -5.44922,-3.117188 -10.42969,-3.117188 H 88.191142 V -5.9375e-4 h 7.195313 V -16.430281 h 10.136715 l 6.23438,16.42968725 z M 95.386455,-34.231063 h 9.597655 c 5.09766,0 7.07813,2.871094 7.07813,5.871094 0,4.980469 -4.13672,6.175781 -7.67579,6.175781 h -8.999995 z m 50.487305,-5.753906 h -8.8125 l -13.3125,39.98437525 h 6.17578 l 3.11719,-9.52734375 h 15.35156 l 3.23438,9.52734375 h 7.67578 z m -11.02734,24.691406 5.8125,-17.859375 5.8125,17.859375 z m 0,0"
         style="fill:#ffffff;fill-opacity:1;fill-rule:nonzero;stroke:none"
         aria-label="NISRA"
         transform="matrix(1.3333333,0,0,1.3333333,164.00947,178.42267)" />
    </g>
    <g
       id="g15" />
    <g
       id="g17" />
  </g>
</svg>
